<?xml version="1.0" encoding="UTF-8"?>
<svg xmlns="http://www.w3.org/2000/svg" width="342.6" height="80.399" viewBox="0 0 342.6 80.399">
  <g id="nuevo_logo" data-name="nuevo logo" transform="translate(-506.839 -272.749)">
    <g id="Grupo_66" data-name="Grupo 66" transform="translate(506.839 272.749)">
      <rect id="Rectángulo_23" data-name="Rectángulo 23" width="130.112" height="80.399" rx="6.848" fill="#1c4c2c"></rect>
      <path id="Trazado_541" data-name="Trazado 541" d="M528.872,323.113q.593-.069,1.416-.209a5.342,5.342,0,0,0,1.346-.385,1.116,1.116,0,0,0,.648-.822,5.2,5.2,0,0,0,.122-1.067,3.578,3.578,0,0,0-1.031-2.639,4.815,4.815,0,0,0-3.479-1.031,9.635,9.635,0,0,0-1.993.192,4.356,4.356,0,0,0-1.591.664,3.674,3.674,0,0,0-1.119,1.26,5.317,5.317,0,0,0-.577,1.974H520.48a6.486,6.486,0,0,1,.734-2.745,5.561,5.561,0,0,1,1.626-1.853,6.737,6.737,0,0,1,2.307-1.049,11.286,11.286,0,0,1,2.78-.333,10.7,10.7,0,0,1,2.569.3,5.939,5.939,0,0,1,2.1.944,4.38,4.38,0,0,1,1.4,1.73,6.239,6.239,0,0,1,.507,2.657v9.86q0,1.224.437,1.556t1.766-.158V333.6q-.245.069-.718.209a3.251,3.251,0,0,1-.926.139,4.173,4.173,0,0,1-.945-.1,1.628,1.628,0,0,1-.839-.332,2.056,2.056,0,0,1-.507-.63,2.608,2.608,0,0,1-.262-.8,5.8,5.8,0,0,1-.069-.926,9.13,9.13,0,0,1-3.043,2.237,8.942,8.942,0,0,1-3.706.769,8.322,8.322,0,0,1-2.291-.314,5.524,5.524,0,0,1-1.94-.98,4.828,4.828,0,0,1-1.328-1.625,4.991,4.991,0,0,1-.49-2.291q0-4.615,6.329-5.454Zm3.53,1.049a10.235,10.235,0,0,1-2.692.735q-1.364.176-2.727.279a7.69,7.69,0,0,0-3.758,1.084,3.109,3.109,0,0,0-1.347,2.762,3,3,0,0,0,.332,1.452,3.067,3.067,0,0,0,.874,1.013,3.672,3.672,0,0,0,1.259.594,5.579,5.579,0,0,0,1.451.193,9.5,9.5,0,0,0,2.448-.316,6.616,6.616,0,0,0,2.116-.961,4.909,4.909,0,0,0,1.486-1.644,4.748,4.748,0,0,0,.559-2.36Z" transform="translate(-505.614 -268.7)" fill="#9cba26"></path>
      <path id="Trazado_542" data-name="Trazado 542" d="M551.609,309.072h2.1v25.174h-2.1v-3.182h-.069a5.688,5.688,0,0,1-1.171,1.591,7.179,7.179,0,0,1-1.573,1.137,8.507,8.507,0,0,1-1.766.7,6.885,6.885,0,0,1-1.784.244A8.629,8.629,0,0,1,541.5,334a6.975,6.975,0,0,1-2.535-2.011,8.2,8.2,0,0,1-1.451-3.025,14.792,14.792,0,0,1-.455-3.741,13.42,13.42,0,0,1,.49-3.637,9.012,9.012,0,0,1,1.486-3.059,7.356,7.356,0,0,1,2.518-2.1,7.711,7.711,0,0,1,3.584-.787,8.335,8.335,0,0,1,3.688.858,6.488,6.488,0,0,1,2.78,2.534Zm0,16.048a9.958,9.958,0,0,0-.42-2.919,7.564,7.564,0,0,0-1.205-2.413,5.945,5.945,0,0,0-1.924-1.643,5.334,5.334,0,0,0-2.569-.611,5.849,5.849,0,0,0-2.832.646,5.58,5.58,0,0,0-1.958,1.766,7.644,7.644,0,0,0-1.119,2.6,11.8,11.8,0,0,0-.279,3.2,8.911,8.911,0,0,0,.471,3.024A6.445,6.445,0,0,0,541.085,331a5.6,5.6,0,0,0,1.958,1.381,6.237,6.237,0,0,0,2.448.472,5.639,5.639,0,0,0,2.622-.595,5.516,5.516,0,0,0,1.923-1.625,7.462,7.462,0,0,0,1.171-2.449A11.132,11.132,0,0,0,551.609,325.12Z" transform="translate(-503.947 -269.274)" fill="#9cba26"></path>
      <path id="Trazado_543" data-name="Trazado 543" d="M556.864,309.159h18.2v3.073H560.175v7.614h13.762v2.9H560.175v8.5h15.143v2.988H556.864Z" transform="translate(-502.053 -269.266)" fill="#43acc0"></path>
      <path id="Trazado_544" data-name="Trazado 544" d="M577.214,309.159h3.4V331.25h12.582v2.988H577.214Z" transform="translate(-500.106 -269.266)" fill="#43acc0"></path>
      <path id="Trazado_545" data-name="Trazado 545" d="M601.8,309.159h3.841l9.1,25.079h-3.721l-2.544-7.512h-9.92l-2.714,7.512H592.36Zm5.582,14.8-3.806-11.081-4.046,11.081Z" transform="translate(-498.657 -269.266)" fill="#43acc0"></path>
      <path id="Trazado_546" data-name="Trazado 546" d="M610.117,294.827a4.681,4.681,0,1,0-4.682-4.682A4.691,4.691,0,0,0,610.117,294.827Z" transform="translate(-497.406 -271.533)" fill="#fff" fill-rule="evenodd"></path>
      <path id="Trazado_547" data-name="Trazado 547" d="M595.849,294.827a4.681,4.681,0,1,0-4.681-4.682A4.69,4.69,0,0,0,595.849,294.827Z" transform="translate(-498.771 -271.533)" fill="#fff" fill-rule="evenodd"></path>
    </g>
    <g id="Grupo_67" data-name="Grupo 67" transform="translate(660.05 311.283)">
      <path id="Trazado_548" data-name="Trazado 548" d="M646.671,317.9l3.509-9.52h1.578l3.481,9.52h-1.523l-.816-2.326h-3.889L648.2,317.9Zm2.747-3.468h3.074l-1.537-4.339Z" transform="translate(-646.671 -307.874)" fill="#1c4c2c"></path>
      <path id="Trazado_549" data-name="Trazado 549" d="M658.383,317.832a3.4,3.4,0,0,1-2.108-.626,2.346,2.346,0,0,1-.952-1.659h1.456a1.431,1.431,0,0,0,.517.8,1.637,1.637,0,0,0,1.073.333,1.393,1.393,0,0,0,.953-.272.83.83,0,0,0,.3-.626.693.693,0,0,0-.415-.7,5.867,5.867,0,0,0-1.149-.334,8.636,8.636,0,0,1-1.135-.325,2.5,2.5,0,0,1-.938-.579,1.367,1.367,0,0,1-.375-1.013,1.877,1.877,0,0,1,.679-1.476,2.814,2.814,0,0,1,1.9-.591,2.9,2.9,0,0,1,1.83.543,2.193,2.193,0,0,1,.822,1.537h-1.386a1,1,0,0,0-.4-.68,1.472,1.472,0,0,0-.891-.244,1.376,1.376,0,0,0-.843.225.692.692,0,0,0-.3.577.622.622,0,0,0,.416.558,5.35,5.35,0,0,0,1.095.367,11.965,11.965,0,0,1,1.258.346,2.236,2.236,0,0,1,.931.578,1.584,1.584,0,0,1,.354,1.115,1.89,1.89,0,0,1-.714,1.536A2.973,2.973,0,0,1,658.383,317.832Z" transform="translate(-645.843 -307.646)" fill="#1c4c2c"></path>
      <path id="Trazado_550" data-name="Trazado 550" d="M665.19,317.832a3.419,3.419,0,0,1-1.733-.442,3.227,3.227,0,0,1-1.218-1.238,3.727,3.727,0,0,1-.448-1.856,3.659,3.659,0,0,1,.456-1.856,3.257,3.257,0,0,1,1.23-1.238,3.612,3.612,0,0,1,3.461,0,3.28,3.28,0,0,1,1.224,1.238,4.007,4.007,0,0,1,0,3.712,3.253,3.253,0,0,1-1.232,1.238A3.455,3.455,0,0,1,665.19,317.832Zm0-1.237a1.871,1.871,0,0,0,.959-.259,1.894,1.894,0,0,0,.714-.769,2.683,2.683,0,0,0,.272-1.271,2.746,2.746,0,0,0-.265-1.272,1.877,1.877,0,0,0-2.624-.768,1.908,1.908,0,0,0-.716.768,3.112,3.112,0,0,0,0,2.543,1.919,1.919,0,0,0,.708.769A1.83,1.83,0,0,0,665.19,316.6Z" transform="translate(-645.224 -307.646)" fill="#1c4c2c"></path>
      <path id="Trazado_551" data-name="Trazado 551" d="M672.665,317.832a3.485,3.485,0,0,1-1.774-.449,3.187,3.187,0,0,1-1.224-1.244,4.057,4.057,0,0,1,0-3.686,3.19,3.19,0,0,1,1.224-1.245,3.5,3.5,0,0,1,1.774-.448,3.352,3.352,0,0,1,2.1.652,2.959,2.959,0,0,1,1.1,1.768h-1.511a1.419,1.419,0,0,0-.6-.87,2,2,0,0,0-2.069-.048,1.948,1.948,0,0,0-.721.776,3.047,3.047,0,0,0,0,2.516,2,2,0,0,0,.721.782,1.862,1.862,0,0,0,.979.272,1.894,1.894,0,0,0,1.089-.313,1.424,1.424,0,0,0,.6-.883h1.511a2.923,2.923,0,0,1-1.089,1.754A3.335,3.335,0,0,1,672.665,317.832Z" transform="translate(-644.513 -307.646)" fill="#1c4c2c"></path>
      <path id="Trazado_552" data-name="Trazado 552" d="M677.537,309.9a.941.941,0,0,1-.674-.252.886.886,0,0,1,0-1.264,1.024,1.024,0,0,1,1.345,0,.884.884,0,0,1,0,1.264A.934.934,0,0,1,677.537,309.9Zm-.721,8.024v-6.746h1.441v6.746Z" transform="translate(-643.808 -307.898)" fill="#1c4c2c"></path>
      <path id="Trazado_553" data-name="Trazado 553" d="M682.155,317.832a3.089,3.089,0,0,1-1.414-.286,1.944,1.944,0,0,1-.829-.754,2.008,2.008,0,0,1-.272-1.028,1.834,1.834,0,0,1,.762-1.55,3.577,3.577,0,0,1,2.176-.571h1.767v-.123a1.531,1.531,0,0,0-.428-1.183,1.569,1.569,0,0,0-1.109-.394,1.851,1.851,0,0,0-1.04.293,1.226,1.226,0,0,0-.537.863h-1.442a2.257,2.257,0,0,1,.5-1.257,2.781,2.781,0,0,1,1.088-.8,3.694,3.694,0,0,1,1.448-.278,3.039,3.039,0,0,1,2.189.741,2.662,2.662,0,0,1,.776,2.019v4.148h-1.251l-.122-1.156a2.569,2.569,0,0,1-.829.938A2.443,2.443,0,0,1,682.155,317.832Zm.285-1.169a1.689,1.689,0,0,0,.987-.279,1.886,1.886,0,0,0,.625-.741,2.974,2.974,0,0,0,.279-1.02h-1.605a1.92,1.92,0,0,0-1.216.3.933.933,0,0,0-.362.748.866.866,0,0,0,.346.726A1.522,1.522,0,0,0,682.44,316.663Z" transform="translate(-643.517 -307.646)" fill="#1c4c2c"></path>
      <path id="Trazado_554" data-name="Trazado 554" d="M690.005,317.832a3.492,3.492,0,0,1-1.775-.449,3.2,3.2,0,0,1-1.224-1.244,4.058,4.058,0,0,1,0-3.686,3.2,3.2,0,0,1,1.224-1.245,3.5,3.5,0,0,1,1.775-.448,3.344,3.344,0,0,1,2.1.652,2.954,2.954,0,0,1,1.1,1.768h-1.51a1.416,1.416,0,0,0-.6-.87,2,2,0,0,0-2.068-.048,1.934,1.934,0,0,0-.721.776,3.059,3.059,0,0,0,0,2.516,1.989,1.989,0,0,0,.721.782,1.862,1.862,0,0,0,.98.272,1.89,1.89,0,0,0,1.088-.313,1.421,1.421,0,0,0,.6-.883h1.51a2.922,2.922,0,0,1-1.088,1.754A3.333,3.333,0,0,1,690.005,317.832Z" transform="translate(-642.854 -307.646)" fill="#1c4c2c"></path>
      <path id="Trazado_555" data-name="Trazado 555" d="M694.876,309.9a.938.938,0,0,1-.673-.252.886.886,0,0,1,0-1.264,1.025,1.025,0,0,1,1.347,0,.889.889,0,0,1,0,1.264A.941.941,0,0,1,694.876,309.9Zm-.721,8.024v-6.746H695.6v6.746Z" transform="translate(-642.149 -307.898)" fill="#1c4c2c"></path>
      <path id="Trazado_556" data-name="Trazado 556" d="M700.366,318.1a3.422,3.422,0,0,1-1.733-.442,3.224,3.224,0,0,1-1.217-1.238,4.033,4.033,0,0,1,.007-3.712,3.265,3.265,0,0,1,1.23-1.238,3.614,3.614,0,0,1,3.462,0,3.276,3.276,0,0,1,1.223,1.238,4.007,4.007,0,0,1,0,3.712,3.257,3.257,0,0,1-1.23,1.238A3.465,3.465,0,0,1,700.366,318.1Zm0-1.237a1.871,1.871,0,0,0,.959-.259,1.9,1.9,0,0,0,.714-.769,2.67,2.67,0,0,0,.272-1.271,2.732,2.732,0,0,0-.265-1.272,1.854,1.854,0,0,0-.707-.768,1.871,1.871,0,0,0-2.632.768,3.112,3.112,0,0,0,0,2.543,1.9,1.9,0,0,0,.708.769A1.83,1.83,0,0,0,700.366,316.867ZM700,310.639V309.6l2.965-1.686v1.2Z" transform="translate(-641.859 -307.918)" fill="#1c4c2c"></path>
      <path id="Trazado_557" data-name="Trazado 557" d="M704.624,317.669v-6.746H705.9l.109,1.183a2.345,2.345,0,0,1,.917-.985,2.664,2.664,0,0,1,1.395-.361,2.481,2.481,0,0,1,1.924.762,3.252,3.252,0,0,1,.7,2.271v3.875h-1.428v-3.726q0-1.959-1.605-1.958a1.719,1.719,0,0,0-1.326.571,2.329,2.329,0,0,0-.524,1.633v3.481Z" transform="translate(-641.126 -307.646)" fill="#1c4c2c"></path>
      <path id="Trazado_558" data-name="Trazado 558" d="M715.125,317.9v-9.52h6.051v1.17h-4.61v2.965h4.2v1.143h-4.2v3.073h4.61V317.9Z" transform="translate(-640.122 -307.874)" fill="#1c4c2c"></path>
      <path id="Trazado_559" data-name="Trazado 559" d="M724.888,317.832a3.4,3.4,0,0,1-2.108-.626,2.343,2.343,0,0,1-.953-1.659h1.456a1.437,1.437,0,0,0,.517.8,1.639,1.639,0,0,0,1.073.333,1.393,1.393,0,0,0,.953-.272.826.826,0,0,0,.3-.626.693.693,0,0,0-.415-.7,5.845,5.845,0,0,0-1.149-.334,8.632,8.632,0,0,1-1.135-.325,2.506,2.506,0,0,1-.938-.579,1.367,1.367,0,0,1-.375-1.013,1.875,1.875,0,0,1,.68-1.476,2.809,2.809,0,0,1,1.9-.591,2.9,2.9,0,0,1,1.83.543,2.193,2.193,0,0,1,.822,1.537h-1.386a1,1,0,0,0-.4-.68,1.47,1.47,0,0,0-.891-.244,1.377,1.377,0,0,0-.843.225.691.691,0,0,0-.3.577.62.62,0,0,0,.415.558,5.352,5.352,0,0,0,1.095.367,11.983,11.983,0,0,1,1.258.346,2.236,2.236,0,0,1,.931.578,1.585,1.585,0,0,1,.354,1.115,1.887,1.887,0,0,1-.713,1.536A2.975,2.975,0,0,1,724.888,317.832Z" transform="translate(-639.48 -307.646)" fill="#1c4c2c"></path>
      <path id="Trazado_560" data-name="Trazado 560" d="M728.517,320.662v-9.738h1.293l.149,1.047a3.086,3.086,0,0,1,.9-.843,2.664,2.664,0,0,1,1.468-.367,3.224,3.224,0,0,1,1.728.461,3.265,3.265,0,0,1,1.176,1.265,3.8,3.8,0,0,1,.428,1.822,3.763,3.763,0,0,1-.428,1.816,3.218,3.218,0,0,1-1.176,1.251,3.29,3.29,0,0,1-1.742.456,2.978,2.978,0,0,1-1.393-.313,2.407,2.407,0,0,1-.96-.883v4.026Zm3.55-4.08a2,2,0,0,0,1.523-.632,2.308,2.308,0,0,0,.6-1.652,2.51,2.51,0,0,0-.273-1.183,2,2,0,0,0-1.849-1.1,1.975,1.975,0,0,0-1.516.639,2.594,2.594,0,0,0,0,3.3A1.984,1.984,0,0,0,732.067,316.581Z" transform="translate(-638.84 -307.646)" fill="#1c4c2c"></path>
      <path id="Trazado_561" data-name="Trazado 561" d="M738.767,317.832a3.089,3.089,0,0,1-1.415-.286,1.944,1.944,0,0,1-.829-.754,2.009,2.009,0,0,1-.272-1.028,1.834,1.834,0,0,1,.761-1.55,3.577,3.577,0,0,1,2.176-.571h1.767v-.123a1.531,1.531,0,0,0-.428-1.183,1.571,1.571,0,0,0-1.109-.394,1.849,1.849,0,0,0-1.04.293,1.223,1.223,0,0,0-.537.863H736.4a2.258,2.258,0,0,1,.5-1.257,2.782,2.782,0,0,1,1.088-.8,3.7,3.7,0,0,1,1.449-.278,3.039,3.039,0,0,1,2.189.741,2.662,2.662,0,0,1,.776,2.019v4.148h-1.251l-.122-1.156a2.568,2.568,0,0,1-.829.938A2.443,2.443,0,0,1,738.767,317.832Zm.285-1.169a1.682,1.682,0,0,0,.986-.279,1.88,1.88,0,0,0,.626-.741,2.973,2.973,0,0,0,.279-1.02h-1.605a1.92,1.92,0,0,0-1.216.3.933.933,0,0,0-.362.748.866.866,0,0,0,.346.726A1.52,1.52,0,0,0,739.052,316.663Z" transform="translate(-638.1 -307.646)" fill="#1c4c2c"></path>
      <path id="Trazado_562" data-name="Trazado 562" d="M743.4,317.855v-6.746h1.279l.108,1.183a2.355,2.355,0,0,1,.918-.985,2.662,2.662,0,0,1,1.394-.36,2.483,2.483,0,0,1,1.925.762,3.257,3.257,0,0,1,.7,2.271v3.875H748.3v-3.726q0-1.959-1.6-1.958a1.719,1.719,0,0,0-1.326.571,2.325,2.325,0,0,0-.524,1.633v3.481Zm4.162-7.48a1.183,1.183,0,0,1-.626-.156c-.173-.105-.333-.209-.483-.313a.853.853,0,0,0-.5-.157c-.335,0-.531.2-.585.612h-.8a2.043,2.043,0,0,1,.5-1.163,1.277,1.277,0,0,1,.946-.375,1.188,1.188,0,0,1,.625.157c.172.1.334.208.483.312a.863.863,0,0,0,.509.157.538.538,0,0,0,.388-.149.759.759,0,0,0,.2-.462h.8a1.954,1.954,0,0,1-.5,1.156A1.309,1.309,0,0,1,747.562,310.374Z" transform="translate(-637.416 -307.831)" fill="#1c4c2c"></path>
      <path id="Trazado_563" data-name="Trazado 563" d="M753.9,317.832a3.419,3.419,0,0,1-1.733-.442,3.219,3.219,0,0,1-1.218-1.238,3.727,3.727,0,0,1-.448-1.856,3.67,3.67,0,0,1,.455-1.856,3.273,3.273,0,0,1,1.231-1.238,3.614,3.614,0,0,1,3.462,0,3.288,3.288,0,0,1,1.224,1.238,4.015,4.015,0,0,1,0,3.712,3.26,3.26,0,0,1-1.232,1.238A3.461,3.461,0,0,1,753.9,317.832Zm0-1.237a1.848,1.848,0,0,0,1.672-1.028,2.672,2.672,0,0,0,.272-1.271,2.744,2.744,0,0,0-.264-1.272,1.878,1.878,0,0,0-2.625-.768,1.9,1.9,0,0,0-.714.768,3.111,3.111,0,0,0,0,2.543,1.911,1.911,0,0,0,.708.769A1.83,1.83,0,0,0,753.9,316.6Z" transform="translate(-636.737 -307.646)" fill="#1c4c2c"></path>
      <path id="Trazado_564" data-name="Trazado 564" d="M758.157,317.921v-9.792H759.6v9.792Z" transform="translate(-636.004 -307.898)" fill="#1c4c2c"></path>
      <path id="Trazado_565" data-name="Trazado 565" d="M763.442,317.832a3.084,3.084,0,0,1-1.413-.286,1.945,1.945,0,0,1-.829-.754,2,2,0,0,1-.273-1.028,1.837,1.837,0,0,1,.761-1.55,3.579,3.579,0,0,1,2.176-.571h1.768v-.123a1.531,1.531,0,0,0-.428-1.183,1.575,1.575,0,0,0-1.109-.394,1.85,1.85,0,0,0-1.041.293,1.226,1.226,0,0,0-.537.863h-1.442a2.274,2.274,0,0,1,.5-1.257,2.776,2.776,0,0,1,1.089-.8,3.693,3.693,0,0,1,1.447-.278,3.041,3.041,0,0,1,2.19.741,2.662,2.662,0,0,1,.776,2.019v4.148h-1.252l-.122-1.156a2.57,2.57,0,0,1-.829.938A2.44,2.44,0,0,1,763.442,317.832Zm.286-1.169a1.677,1.677,0,0,0,.985-.279,1.874,1.874,0,0,0,.627-.741,3,3,0,0,0,.279-1.02h-1.606a1.92,1.92,0,0,0-1.216.3.932.932,0,0,0-.36.748.863.863,0,0,0,.346.726A1.515,1.515,0,0,0,763.728,316.663Z" transform="translate(-635.74 -307.646)" fill="#1c4c2c"></path>
      <path id="Trazado_566" data-name="Trazado 566" d="M774.3,318.084a3.162,3.162,0,0,1-2.9-1.727,3.879,3.879,0,0,1-.421-1.823,3.839,3.839,0,0,1,.421-1.816,3.166,3.166,0,0,1,1.178-1.251,3.284,3.284,0,0,1,1.733-.455,3.034,3.034,0,0,1,1.408.312,2.31,2.31,0,0,1,.946.884v-4.08h1.442v9.792h-1.294l-.148-1.047a3.119,3.119,0,0,1-.9.844A2.673,2.673,0,0,1,774.3,318.084Zm.258-1.251a1.975,1.975,0,0,0,1.517-.639,2.594,2.594,0,0,0,0-3.3,1.985,1.985,0,0,0-1.517-.632,2.006,2.006,0,0,0-1.524.632,2.311,2.311,0,0,0-.6,1.652,2.488,2.488,0,0,0,.273,1.183,2.025,2.025,0,0,0,.754.809A2.072,2.072,0,0,0,774.557,316.833Z" transform="translate(-634.778 -307.898)" fill="#1c4c2c"></path>
      <path id="Trazado_567" data-name="Trazado 567" d="M782.324,317.832a3.485,3.485,0,0,1-1.762-.442,3.139,3.139,0,0,1-1.2-1.232,3.724,3.724,0,0,1-.436-1.835,3.893,3.893,0,0,1,.428-1.864,3.126,3.126,0,0,1,1.2-1.251,3.481,3.481,0,0,1,1.788-.448,3.285,3.285,0,0,1,1.728.442,3.129,3.129,0,0,1,1.142,1.177,3.276,3.276,0,0,1,.409,1.618c0,.09,0,.188-.008.293s-.011.219-.019.346h-5.25a2.077,2.077,0,0,0,.646,1.489,1.958,1.958,0,0,0,1.339.511,1.806,1.806,0,0,0,1.028-.279,1.692,1.692,0,0,0,.618-.755h1.442a3.066,3.066,0,0,1-1.081,1.592A3.135,3.135,0,0,1,782.324,317.832Zm0-5.889a2.04,2.04,0,0,0-1.279.43,1.869,1.869,0,0,0-.679,1.284h3.807a1.719,1.719,0,0,0-.558-1.251A1.866,1.866,0,0,0,782.324,311.943Z" transform="translate(-634.018 -307.646)" fill="#1c4c2c"></path>
      <path id="Trazado_568" data-name="Trazado 568" d="M647.23,335.387v-9.519h6.051v1.169h-4.609V330h4.2v1.143h-4.2v3.073h4.609v1.169Z" transform="translate(-646.618 -306.201)" fill="#1c4c2c"></path>
      <path id="Trazado_569" data-name="Trazado 569" d="M656.993,335.322a3.4,3.4,0,0,1-2.108-.626,2.343,2.343,0,0,1-.953-1.659h1.456a1.437,1.437,0,0,0,.517.8,1.639,1.639,0,0,0,1.073.333,1.388,1.388,0,0,0,.953-.272.826.826,0,0,0,.3-.626.694.694,0,0,0-.415-.7,5.782,5.782,0,0,0-1.149-.333,8.827,8.827,0,0,1-1.135-.327,2.492,2.492,0,0,1-.938-.579,1.365,1.365,0,0,1-.375-1.012,1.873,1.873,0,0,1,.68-1.476,2.807,2.807,0,0,1,1.9-.592,2.9,2.9,0,0,1,1.829.543,2.187,2.187,0,0,1,.822,1.537h-1.386a1,1,0,0,0-.4-.68,1.468,1.468,0,0,0-.891-.244,1.379,1.379,0,0,0-.843.225.691.691,0,0,0-.3.577.622.622,0,0,0,.415.558,5.354,5.354,0,0,0,1.095.367,11.754,11.754,0,0,1,1.259.347,2.228,2.228,0,0,1,.93.577,1.585,1.585,0,0,1,.354,1.115,1.89,1.89,0,0,1-.713,1.537A2.981,2.981,0,0,1,656.993,335.322Z" transform="translate(-645.976 -305.973)" fill="#1c4c2c"></path>
      <path id="Trazado_570" data-name="Trazado 570" d="M663.839,335.322a3.5,3.5,0,0,1-1.774-.448,3.2,3.2,0,0,1-1.224-1.245,4.067,4.067,0,0,1,0-3.686,3.2,3.2,0,0,1,1.224-1.245,3.5,3.5,0,0,1,1.774-.448,3.347,3.347,0,0,1,2.1.653,2.957,2.957,0,0,1,1.095,1.767h-1.51a1.42,1.42,0,0,0-.6-.87,2,2,0,0,0-2.069-.048,1.945,1.945,0,0,0-.72.776,3.047,3.047,0,0,0,0,2.516,1.986,1.986,0,0,0,.72.782,1.855,1.855,0,0,0,.98.272,1.9,1.9,0,0,0,1.089-.312,1.427,1.427,0,0,0,.6-.884h1.51a2.923,2.923,0,0,1-1.089,1.754A3.324,3.324,0,0,1,663.839,335.322Z" transform="translate(-645.357 -305.973)" fill="#1c4c2c"></path>
      <path id="Trazado_571" data-name="Trazado 571" d="M667.884,335.411v-9.792h1.442v9.792Z" transform="translate(-644.641 -306.224)" fill="#1c4c2c"></path>
      <path id="Trazado_572" data-name="Trazado 572" d="M674.039,335.322a3.474,3.474,0,0,1-1.762-.442,3.136,3.136,0,0,1-1.2-1.23,3.728,3.728,0,0,1-.436-1.836,3.888,3.888,0,0,1,.428-1.863,3.129,3.129,0,0,1,1.2-1.252,3.481,3.481,0,0,1,1.788-.448,3.285,3.285,0,0,1,1.728.442,3.132,3.132,0,0,1,1.143,1.177,3.278,3.278,0,0,1,.408,1.618c0,.091,0,.188-.008.293s-.01.22-.019.347h-5.25a2.081,2.081,0,0,0,.646,1.489,1.964,1.964,0,0,0,1.339.509,1.81,1.81,0,0,0,1.028-.278,1.7,1.7,0,0,0,.618-.755h1.442a3.066,3.066,0,0,1-1.08,1.591A3.141,3.141,0,0,1,674.039,335.322Zm0-5.888a2.043,2.043,0,0,0-1.279.428,1.874,1.874,0,0,0-.679,1.285h3.807a1.715,1.715,0,0,0-.558-1.251A1.866,1.866,0,0,0,674.039,329.434Z" transform="translate(-644.378 -305.973)" fill="#1c4c2c"></path>
      <path id="Trazado_573" data-name="Trazado 573" d="M678.111,335.159v-6.745H679.4l.123,1.278a2.7,2.7,0,0,1,.986-1.053,2.873,2.873,0,0,1,1.53-.388v1.51h-.393a2.731,2.731,0,0,0-1.068.2,1.553,1.553,0,0,0-.747.666,2.543,2.543,0,0,0-.279,1.3v3.237Z" transform="translate(-643.663 -305.973)" fill="#1c4c2c"></path>
      <path id="Trazado_574" data-name="Trazado 574" d="M685.831,335.322a3.407,3.407,0,0,1-1.733-.442,3.219,3.219,0,0,1-1.218-1.238,3.723,3.723,0,0,1-.448-1.856,3.672,3.672,0,0,1,.455-1.856,3.273,3.273,0,0,1,1.23-1.238,3.614,3.614,0,0,1,3.462,0,3.287,3.287,0,0,1,1.224,1.238,4.015,4.015,0,0,1,0,3.712,3.26,3.26,0,0,1-1.232,1.238A3.449,3.449,0,0,1,685.831,335.322Zm0-1.237a1.85,1.85,0,0,0,1.672-1.027,2.675,2.675,0,0,0,.272-1.272,2.749,2.749,0,0,0-.264-1.272,1.878,1.878,0,0,0-2.625-.768,1.905,1.905,0,0,0-.714.768,3.114,3.114,0,0,0,0,2.544,1.915,1.915,0,0,0,.708.768A1.83,1.83,0,0,0,685.831,334.085Z" transform="translate(-643.25 -305.973)" fill="#1c4c2c"></path>
      <path id="Trazado_575" data-name="Trazado 575" d="M692.814,335.322a3.4,3.4,0,0,1-2.108-.626,2.338,2.338,0,0,1-.952-1.659h1.455a1.443,1.443,0,0,0,.517.8,1.64,1.64,0,0,0,1.074.333,1.385,1.385,0,0,0,.952-.272.826.826,0,0,0,.3-.626.693.693,0,0,0-.415-.7,5.76,5.76,0,0,0-1.149-.333,8.764,8.764,0,0,1-1.134-.327,2.5,2.5,0,0,1-.939-.579,1.364,1.364,0,0,1-.374-1.012,1.875,1.875,0,0,1,.679-1.476,2.807,2.807,0,0,1,1.9-.592,2.9,2.9,0,0,1,1.829.543,2.192,2.192,0,0,1,.823,1.537h-1.386a1,1,0,0,0-.4-.68,1.472,1.472,0,0,0-.891-.244,1.38,1.38,0,0,0-.844.225.693.693,0,0,0-.3.577.622.622,0,0,0,.415.558,5.364,5.364,0,0,0,1.1.367,11.811,11.811,0,0,1,1.258.347,2.221,2.221,0,0,1,.93.577,1.585,1.585,0,0,1,.354,1.115,1.89,1.89,0,0,1-.713,1.537A2.981,2.981,0,0,1,692.814,335.322Z" transform="translate(-642.549 -305.973)" fill="#1c4c2c"></path>
      <path id="Trazado_576" data-name="Trazado 576" d="M697.27,327.387a.931.931,0,0,1-.672-.252.884.884,0,0,1,0-1.264,1.024,1.024,0,0,1,1.345,0,.886.886,0,0,1,0,1.264A.936.936,0,0,1,697.27,327.387Zm-.72,8.024v-6.745h1.441v6.745Z" transform="translate(-641.92 -306.224)" fill="#1c4c2c"></path>
      <path id="Trazado_577" data-name="Trazado 577" d="M702.308,335.322a3.4,3.4,0,0,1-2.108-.626,2.34,2.34,0,0,1-.951-1.659H700.7a1.442,1.442,0,0,0,.517.8,1.642,1.642,0,0,0,1.074.333,1.386,1.386,0,0,0,.952-.272.823.823,0,0,0,.3-.626.693.693,0,0,0-.414-.7,5.805,5.805,0,0,0-1.149-.333,8.842,8.842,0,0,1-1.136-.327,2.51,2.51,0,0,1-.938-.579,1.365,1.365,0,0,1-.375-1.012,1.874,1.874,0,0,1,.682-1.476,2.806,2.806,0,0,1,1.9-.592,2.908,2.908,0,0,1,1.83.543,2.2,2.2,0,0,1,.822,1.537h-1.387a1,1,0,0,0-.4-.68,1.47,1.47,0,0,0-.891-.244,1.379,1.379,0,0,0-.843.225.688.688,0,0,0-.3.577.619.619,0,0,0,.414.558,5.376,5.376,0,0,0,1.095.367,11.6,11.6,0,0,1,1.258.347,2.235,2.235,0,0,1,.932.577,1.584,1.584,0,0,1,.353,1.115,1.884,1.884,0,0,1-.713,1.537A2.982,2.982,0,0,1,702.308,335.322Z" transform="translate(-641.641 -305.973)" fill="#1c4c2c"></path>
      <path id="Trazado_578" data-name="Trazado 578" d="M709.116,335.387v-9.519h1.442v8.378h4.325v1.142Z" transform="translate(-640.696 -306.201)" fill="#1c4c2c"></path>
      <path id="Trazado_579" data-name="Trazado 579" d="M718.05,335.322a3.1,3.1,0,0,1-1.414-.285,1.953,1.953,0,0,1-.829-.755,2.008,2.008,0,0,1-.272-1.027,1.833,1.833,0,0,1,.761-1.55,3.569,3.569,0,0,1,2.176-.572h1.767v-.122a1.529,1.529,0,0,0-.428-1.183,1.569,1.569,0,0,0-1.109-.394,1.836,1.836,0,0,0-1.039.293,1.222,1.222,0,0,0-.538.863h-1.442a2.259,2.259,0,0,1,.5-1.258,2.789,2.789,0,0,1,1.088-.8,3.7,3.7,0,0,1,1.45-.278,3.038,3.038,0,0,1,2.188.741,2.664,2.664,0,0,1,.776,2.02v4.147H720.43L720.308,334a2.573,2.573,0,0,1-.829.939A2.451,2.451,0,0,1,718.05,335.322Zm.285-1.169a1.689,1.689,0,0,0,.987-.279,1.885,1.885,0,0,0,.624-.741,2.963,2.963,0,0,0,.279-1.02h-1.605a1.92,1.92,0,0,0-1.216.3.933.933,0,0,0-.362.748.866.866,0,0,0,.347.728A1.522,1.522,0,0,0,718.335,334.153Z" transform="translate(-640.082 -305.973)" fill="#1c4c2c"></path>
      <path id="Trazado_580" data-name="Trazado 580" d="M725.431,335.295a2.4,2.4,0,0,1-1.578-.482,2.136,2.136,0,0,1-.585-1.72v-3.333h-1.156v-1.21h1.156l.177-1.714h1.264v1.714h1.9v1.21h-1.9v3.333a1,1,0,0,0,.238.768,1.248,1.248,0,0,0,.823.21h.776v1.224Z" transform="translate(-639.453 -306.108)" fill="#1c4c2c"></path>
      <path id="Trazado_581" data-name="Trazado 581" d="M730.589,335.322a3.461,3.461,0,0,1-1.761-.442,3.134,3.134,0,0,1-1.2-1.23,3.739,3.739,0,0,1-.435-1.836,3.887,3.887,0,0,1,.428-1.863,3.114,3.114,0,0,1,1.2-1.252,3.484,3.484,0,0,1,1.788-.448,3.28,3.28,0,0,1,1.727.442,3.126,3.126,0,0,1,1.144,1.177,3.278,3.278,0,0,1,.408,1.618q0,.136-.007.293c-.005.1-.012.22-.021.347H728.6a2.089,2.089,0,0,0,.645,1.489,1.965,1.965,0,0,0,1.34.509,1.8,1.8,0,0,0,1.027-.278,1.7,1.7,0,0,0,.619-.755h1.442a3.068,3.068,0,0,1-1.081,1.591A3.137,3.137,0,0,1,730.589,335.322Zm0-5.888a2.043,2.043,0,0,0-1.279.428,1.869,1.869,0,0,0-.679,1.285h3.807a1.724,1.724,0,0,0-.558-1.251A1.868,1.868,0,0,0,730.589,329.434Z" transform="translate(-638.967 -305.973)" fill="#1c4c2c"></path>
      <path id="Trazado_582" data-name="Trazado 582" d="M734.66,335.159v-6.745h1.294l.122,1.278a2.692,2.692,0,0,1,.986-1.053,2.871,2.871,0,0,1,1.53-.388v1.51H738.2a2.729,2.729,0,0,0-1.067.2,1.559,1.559,0,0,0-.748.666,2.542,2.542,0,0,0-.279,1.3v3.237Z" transform="translate(-638.253 -305.973)" fill="#1c4c2c"></path>
      <path id="Trazado_583" data-name="Trazado 583" d="M741.683,335.322a3.112,3.112,0,0,1-1.416-.285,1.966,1.966,0,0,1-.829-.755,2.019,2.019,0,0,1-.272-1.027,1.834,1.834,0,0,1,.763-1.55,3.567,3.567,0,0,1,2.175-.572h1.768v-.122a1.526,1.526,0,0,0-.43-1.183,1.569,1.569,0,0,0-1.108-.394,1.84,1.84,0,0,0-1.04.293,1.221,1.221,0,0,0-.537.863h-1.442a2.259,2.259,0,0,1,.5-1.258,2.782,2.782,0,0,1,1.088-.8,3.693,3.693,0,0,1,1.448-.278,3.04,3.04,0,0,1,2.189.741,2.663,2.663,0,0,1,.775,2.02v4.147h-1.25L743.94,334a2.563,2.563,0,0,1-.829.939A2.445,2.445,0,0,1,741.683,335.322Zm.285-1.169a1.682,1.682,0,0,0,.986-.279,1.888,1.888,0,0,0,.626-.741,2.989,2.989,0,0,0,.279-1.02h-1.605a1.926,1.926,0,0,0-1.217.3.935.935,0,0,0-.36.748.868.868,0,0,0,.346.728A1.526,1.526,0,0,0,741.968,334.153Z" transform="translate(-637.821 -305.973)" fill="#1c4c2c"></path>
      <path id="Trazado_584" data-name="Trazado 584" d="M746.316,335.411v-9.792h1.442v9.792Z" transform="translate(-637.137 -306.224)" fill="#1c4c2c"></path>
      <path id="Trazado_585" data-name="Trazado 585" d="M751.914,335.387l3.508-9.519H757l3.481,9.519h-1.522l-.816-2.325h-3.89l-.816,2.325Zm2.747-3.468h3.073l-1.536-4.338Z" transform="translate(-636.602 -306.201)" fill="#1c4c2c"></path>
      <path id="Trazado_586" data-name="Trazado 586" d="M760.9,335.159v-6.745h1.279l.124.952a2.353,2.353,0,0,1,.862-.816,2.52,2.52,0,0,1,1.246-.3,2.271,2.271,0,0,1,2.23,1.264,2.664,2.664,0,0,1,.985-.925,2.74,2.74,0,0,1,1.34-.34,2.609,2.609,0,0,1,1.986.762,3.2,3.2,0,0,1,.721,2.271v3.875h-1.442v-3.726q0-1.957-1.5-1.958a1.555,1.555,0,0,0-1.245.571,2.454,2.454,0,0,0-.483,1.633v3.481h-1.442v-3.726q0-1.957-1.509-1.958a1.544,1.544,0,0,0-1.232.571,2.466,2.466,0,0,0-.483,1.633v3.481Z" transform="translate(-635.742 -305.973)" fill="#1c4c2c"></path>
      <path id="Trazado_587" data-name="Trazado 587" d="M773.1,327.387a.936.936,0,0,1-.674-.252.889.889,0,0,1,0-1.264,1.025,1.025,0,0,1,1.347,0,.886.886,0,0,1,0,1.264A.934.934,0,0,1,773.1,327.387Zm-.721,8.024v-6.745h1.442v6.745Z" transform="translate(-634.665 -306.224)" fill="#1c4c2c"></path>
      <path id="Trazado_588" data-name="Trazado 588" d="M778.587,335.322a3.408,3.408,0,0,1-1.733-.442,3.22,3.22,0,0,1-1.218-1.238,3.723,3.723,0,0,1-.448-1.856,3.662,3.662,0,0,1,.456-1.856,3.263,3.263,0,0,1,1.229-1.238,3.614,3.614,0,0,1,3.462,0,3.287,3.287,0,0,1,1.224,1.238,4.007,4.007,0,0,1,0,3.712,3.26,3.26,0,0,1-1.232,1.238A3.446,3.446,0,0,1,778.587,335.322Zm0-1.237a1.85,1.85,0,0,0,1.672-1.027,2.675,2.675,0,0,0,.272-1.272,2.748,2.748,0,0,0-.264-1.272,1.878,1.878,0,0,0-2.625-.768,1.905,1.905,0,0,0-.714.768,3.114,3.114,0,0,0,0,2.544,1.914,1.914,0,0,0,.708.768A1.83,1.83,0,0,0,778.587,334.085Z" transform="translate(-634.375 -305.973)" fill="#1c4c2c"></path>
      <path id="Trazado_589" data-name="Trazado 589" d="M785.469,335.295a2.4,2.4,0,0,1-1.578-.482,2.132,2.132,0,0,1-.585-1.72v-3.333H782.15v-1.21h1.156l.177-1.714h1.264v1.714h1.9v1.21h-1.9v3.333a1,1,0,0,0,.238.768,1.249,1.249,0,0,0,.823.21h.776v1.224Z" transform="translate(-633.709 -306.108)" fill="#1c4c2c"></path>
      <path id="Trazado_590" data-name="Trazado 590" d="M787.612,335.159v-6.745H788.9l.122,1.278a2.708,2.708,0,0,1,.986-1.053,2.875,2.875,0,0,1,1.531-.388v1.51h-.394a2.734,2.734,0,0,0-1.068.2,1.561,1.561,0,0,0-.747.666,2.543,2.543,0,0,0-.279,1.3v3.237Z" transform="translate(-633.186 -305.973)" fill="#1c4c2c"></path>
      <path id="Trazado_591" data-name="Trazado 591" d="M795.331,335.594a3.407,3.407,0,0,1-1.733-.442,3.226,3.226,0,0,1-1.218-1.238,3.723,3.723,0,0,1-.448-1.856,3.661,3.661,0,0,1,.456-1.856,3.257,3.257,0,0,1,1.23-1.238,3.613,3.613,0,0,1,3.461,0A3.28,3.28,0,0,1,798.3,330.2a4.007,4.007,0,0,1,0,3.712,3.252,3.252,0,0,1-1.232,1.238A3.444,3.444,0,0,1,795.331,335.594Zm0-1.237a1.87,1.87,0,0,0,.959-.259,1.9,1.9,0,0,0,.714-.768,2.689,2.689,0,0,0,.272-1.272,2.747,2.747,0,0,0-.265-1.272,1.877,1.877,0,0,0-2.624-.768,1.915,1.915,0,0,0-.716.768,3.114,3.114,0,0,0,0,2.544,1.93,1.93,0,0,0,.708.768A1.83,1.83,0,0,0,795.331,334.357Zm-.367-6.229V327.1l2.965-1.687v1.2Z" transform="translate(-632.773 -306.245)" fill="#1c4c2c"></path>
      <path id="Trazado_592" data-name="Trazado 592" d="M799.984,335.411v-5.535h-.966v-1.21h.966v-.98a2.01,2.01,0,0,1,.55-1.584,2.287,2.287,0,0,1,1.558-.483h.707v1.225h-.49a.962.962,0,0,0-.679.2.889.889,0,0,0-.2.66v.966H805.7v6.745h-1.442v-5.535h-2.829v5.535Zm5-7.874a.938.938,0,0,1-.673-.252.849.849,0,0,1-.265-.646.812.812,0,0,1,.265-.626,1.05,1.05,0,0,1,1.346,0,.815.815,0,0,1,.264.626.852.852,0,0,1-.264.646A.942.942,0,0,1,804.988,327.538Z" transform="translate(-632.095 -306.224)" fill="#1c4c2c"></path>
      <path id="Trazado_593" data-name="Trazado 593" d="M810.081,335.322a3.5,3.5,0,0,1-1.775-.448,3.2,3.2,0,0,1-1.225-1.245,4.067,4.067,0,0,1,0-3.686,3.208,3.208,0,0,1,1.225-1.245,3.5,3.5,0,0,1,1.775-.448,3.34,3.34,0,0,1,2.1.653,2.949,2.949,0,0,1,1.1,1.767h-1.51a1.42,1.42,0,0,0-.6-.87,2,2,0,0,0-2.068-.048,1.932,1.932,0,0,0-.721.776,3.046,3.046,0,0,0,0,2.516,1.973,1.973,0,0,0,.721.782,1.85,1.85,0,0,0,.98.272,1.9,1.9,0,0,0,1.088-.312,1.427,1.427,0,0,0,.6-.884h1.51a2.922,2.922,0,0,1-1.088,1.754A3.328,3.328,0,0,1,810.081,335.322Z" transform="translate(-631.366 -305.973)" fill="#1c4c2c"></path>
      <path id="Trazado_594" data-name="Trazado 594" d="M816.43,335.322a3.109,3.109,0,0,1-1.416-.285,1.959,1.959,0,0,1-.829-.755,2.018,2.018,0,0,1-.272-1.027,1.836,1.836,0,0,1,.761-1.55,3.571,3.571,0,0,1,2.176-.572h1.767v-.122a1.529,1.529,0,0,0-.428-1.183,1.569,1.569,0,0,0-1.108-.394,1.84,1.84,0,0,0-1.04.293,1.22,1.22,0,0,0-.537.863h-1.442a2.259,2.259,0,0,1,.5-1.258,2.773,2.773,0,0,1,1.088-.8,3.69,3.69,0,0,1,1.449-.278,3.04,3.04,0,0,1,2.189.741,2.668,2.668,0,0,1,.775,2.02v4.147h-1.25L818.687,334a2.563,2.563,0,0,1-.829.939A2.447,2.447,0,0,1,816.43,335.322Zm.285-1.169a1.685,1.685,0,0,0,.986-.279,1.888,1.888,0,0,0,.626-.741,2.991,2.991,0,0,0,.278-1.02H817a1.924,1.924,0,0,0-1.217.3.935.935,0,0,0-.36.748.865.865,0,0,0,.346.728A1.524,1.524,0,0,0,816.715,334.153Z" transform="translate(-630.67 -305.973)" fill="#1c4c2c"></path>
    </g>
  </g>
</svg>
