<?xml version="1.0" encoding="UTF-8" standalone="no"?>
<svg xmlns="http://www.w3.org/2000/svg"
     xmlns:svg="http://www.w3.org/2000/svg"
     version="1.1"
     width="4.16667in" height="4.16667in"
     viewBox="0 0 300 300">
  <path id="Selección"
        fill="#000000" stroke="black" stroke-width="1"
        d="M 248.00,300.00
           C 245.10,286.51 226.96,292.82 217.00,290.07
             211.62,288.59 210.36,286.64 206.00,283.95
             206.00,283.95 198.00,279.79 198.00,279.79
             193.30,276.92 186.68,270.21 182.95,266.00
             180.98,263.77 179.15,261.81 178.01,259.00
             175.66,253.21 176.00,240.56 178.92,235.00
             182.02,229.10 187.07,225.47 189.21,218.00
             190.81,212.44 187.41,198.70 184.30,194.00
             180.67,188.50 167.11,174.10 162.00,169.00
             159.01,166.02 155.41,161.95 151.00,161.43
             145.88,160.83 142.82,164.49 139.58,167.72
             133.49,173.78 127.89,178.75 121.00,183.87
             114.00,189.07 107.11,187.82 99.00,189.32
             99.00,189.32 88.00,193.00 88.00,193.00
             74.44,197.62 65.13,200.72 63.18,217.00
             62.77,220.41 63.08,223.71 64.04,227.00
             68.80,243.20 78.42,244.74 93.00,248.37
             95.71,249.05 103.91,250.56 105.68,251.93
             110.56,255.71 104.19,260.53 103.22,266.00
             102.82,268.27 103.39,272.71 101.98,274.38
             99.29,277.57 93.16,272.32 91.00,270.54
             83.32,264.18 82.61,259.08 77.91,255.70
             75.07,253.66 69.48,252.46 66.00,252.17
             57.35,251.46 58.10,256.97 55.01,263.00
             53.09,266.74 50.42,269.64 47.00,272.06
             45.44,273.16 43.15,274.63 41.15,274.46
             36.82,274.09 38.29,268.40 39.73,266.00
             39.73,266.00 45.01,259.00 45.01,259.00
             48.28,253.69 52.32,239.15 50.57,233.04
             48.68,226.45 41.46,226.67 36.02,225.91
             33.40,225.54 30.14,224.47 30.96,221.06
             32.35,215.32 42.46,217.08 49.96,210.66
             55.60,205.83 59.95,193.22 70.00,188.31
             73.58,186.56 80.87,186.46 85.00,185.68
             90.71,184.59 92.69,181.86 98.00,180.30
             103.91,178.57 110.61,178.87 116.00,175.30
             116.00,175.30 135.00,158.00 135.00,158.00
             137.83,155.17 142.35,150.12 146.00,148.74
             157.22,144.47 164.07,159.50 172.00,164.40
             177.15,167.58 182.48,164.23 181.77,158.00
             181.01,151.31 174.32,145.49 170.99,140.00
             164.92,130.02 170.42,115.17 154.00,113.18
             144.72,112.06 137.08,118.89 133.53,127.00
             131.97,130.56 131.89,134.60 129.91,137.99
             128.57,140.28 127.05,141.60 125.15,143.38
             117.88,150.20 112.97,151.88 103.00,152.00
             88.56,152.17 76.51,151.30 67.70,138.00
             64.98,133.90 64.73,128.68 63.52,124.00
             63.52,124.00 57.72,107.00 57.72,107.00
             56.54,103.07 55.50,97.07 50.96,95.69
             46.24,94.25 41.31,99.34 37.02,100.30
             34.98,100.75 32.71,100.41 32.61,97.85
             32.51,95.16 35.70,92.08 36.38,88.00
             37.35,82.22 33.47,78.16 32.37,75.00
             31.42,73.32 30.66,70.35 32.37,69.13
             35.02,67.60 39.05,71.00 41.00,72.25
             44.92,74.75 49.34,76.16 52.83,79.33
             55.44,81.69 58.24,86.20 62.00,86.46
             63.05,86.53 64.04,86.26 64.98,85.81
             75.33,80.85 62.43,73.07 67.74,67.82
             70.64,64.83 75.15,67.47 78.00,67.82
             81.47,68.41 95.00,62.60 92.35,72.00
             90.90,77.12 78.91,87.78 76.31,93.00
             75.25,95.13 74.27,100.39 73.63,103.00
             72.93,105.82 71.52,111.26 71.46,114.00
             71.39,116.87 72.61,121.24 73.52,124.00
             77.67,136.59 84.59,142.19 98.00,143.22
             101.50,143.49 104.70,142.73 108.00,141.64
             120.19,137.63 122.90,129.92 125.49,118.00
             127.81,107.33 127.00,90.39 127.00,79.00
             127.00,79.00 127.00,47.00 127.00,47.00
             127.00,47.00 128.00,27.00 128.00,27.00
             128.16,13.32 130.18,7.02 145.00,7.00
             150.03,6.99 160.82,6.28 164.96,8.45
             173.37,12.88 171.55,24.13 172.09,32.00
             172.09,32.00 173.00,42.00 173.00,42.00
             173.00,42.00 173.00,82.00 173.00,82.00
             173.00,82.00 177.00,109.00 177.00,109.00
             180.54,105.41 179.21,105.11 180.91,101.00
             180.91,101.00 183.87,95.00 183.87,95.00
             186.02,89.69 186.54,84.73 193.01,82.65
             195.04,82.00 197.87,81.96 200.00,82.04
             200.00,82.04 226.00,85.11 226.00,85.11
             230.00,86.50 231.66,88.20 235.00,90.41
             235.00,90.41 242.00,94.63 242.00,94.63
             246.45,97.83 258.03,110.31 260.78,115.00
             260.78,115.00 264.90,126.00 264.90,126.00
             264.90,126.00 270.15,136.00 270.15,136.00
             270.15,136.00 273.80,163.00 273.80,163.00
             273.80,163.00 279.22,175.00 279.22,175.00
             279.22,175.00 284.01,203.00 284.01,203.00
             284.01,203.00 289.71,222.00 289.71,222.00
             289.71,222.00 292.00,252.00 292.00,252.00
             292.01,259.05 292.70,270.72 290.01,277.00
             288.15,281.33 281.24,288.73 276.96,290.81
             276.96,290.81 269.00,293.76 269.00,293.76
             263.78,295.97 263.04,298.27 259.91,299.42
             257.57,300.27 250.81,300.00 248.00,300.00 Z
           M 147.00,14.43
           C 142.34,16.16 137.93,19.34 135.82,24.00
             129.90,37.06 138.04,50.20 153.00,46.07
             164.78,42.83 169.87,26.68 158.96,17.82
             154.63,14.31 152.43,13.66 147.00,14.43 Z
           M 151.00,56.33
           C 146.75,56.97 142.54,57.66 139.65,61.21
             132.41,70.10 141.42,75.66 150.00,74.82
             154.05,74.43 157.81,73.17 160.43,69.89
             164.52,64.79 163.65,58.94 157.00,56.94
             154.68,56.24 153.35,56.28 151.00,56.33 Z
           M 152.00,84.45
           C 147.83,84.84 143.63,85.23 140.53,88.39
             131.84,97.24 140.55,103.57 150.00,102.90
             161.90,102.07 165.46,90.75 160.69,86.73
             158.40,84.81 154.84,84.59 152.00,84.45 Z
           M 201.00,91.43
           C 187.27,96.83 189.65,111.20 190.83,123.00
             191.26,127.31 190.96,134.40 195.22,136.98
             202.47,141.36 210.45,130.31 215.00,126.04
             216.71,124.44 219.38,121.76 221.94,122.03
             225.10,122.36 225.65,125.47 224.88,128.00
             224.19,130.25 222.60,131.89 222.26,135.00
             221.53,141.82 229.59,148.52 233.91,152.96
             236.59,155.71 245.05,162.66 243.48,166.74
             242.35,169.67 239.04,168.78 237.04,167.45
             237.04,167.45 225.00,155.99 225.00,155.99
             221.77,152.87 217.54,148.42 213.00,147.43
             204.25,145.52 194.22,158.60 192.21,166.00
             191.85,168.32 191.97,174.35 192.21,177.00
             192.12,186.85 193.70,196.04 200.52,203.58
             203.78,207.18 215.80,217.45 215.46,221.94
             214.89,229.48 204.52,222.19 200.18,224.27
             197.77,225.42 196.12,228.68 194.39,230.72
             188.34,237.85 185.58,238.45 186.04,249.00
             186.43,257.95 189.94,260.22 195.83,265.95
             199.50,269.51 211.45,278.18 216.00,279.75
             216.00,279.75 236.00,283.89 236.00,283.89
             240.01,284.90 250.77,289.16 253.98,288.59
             259.83,287.57 262.72,278.83 259.40,274.18
             257.67,271.76 254.00,270.08 253.34,267.84
             252.52,265.09 255.73,262.73 259.00,263.66
             264.21,265.13 271.94,276.86 277.79,273.92
             280.66,272.48 282.68,266.94 283.56,264.00
             287.03,252.35 281.89,243.65 281.09,232.00
             280.78,227.58 281.91,217.96 275.89,217.15
             269.14,216.24 264.84,221.29 261.12,226.00
             257.78,230.22 244.82,243.16 240.02,244.29
             235.43,245.37 233.54,241.44 237.29,237.32
             237.29,237.32 248.99,227.00 248.99,227.00
             248.99,227.00 260.51,214.00 260.51,214.00
             262.66,211.03 269.51,197.49 270.32,194.00
             271.18,190.27 271.04,185.85 271.00,182.00
             270.85,169.70 266.42,168.36 263.90,158.00
             263.90,158.00 260.39,135.00 260.39,135.00
             259.12,131.38 256.60,128.36 254.79,125.00
             254.79,125.00 250.31,116.04 250.31,116.04
             246.54,110.61 232.84,98.28 227.00,95.65
             224.44,94.50 218.98,93.64 216.00,92.99
             209.62,91.59 207.85,90.39 201.00,91.43 Z
           M 89.00,175.00
           C 82.72,173.81 82.27,172.13 77.00,170.85
             71.97,169.62 64.66,169.81 60.00,167.73
             54.53,165.29 47.44,157.19 39.00,158.85
             26.05,161.40 30.66,172.81 24.44,180.98
             22.28,183.84 17.12,188.57 13.15,187.30
             10.84,186.56 10.00,184.24 10.65,182.03
             11.75,178.34 16.45,176.76 17.38,171.00
             18.77,162.37 7.11,157.51 13.32,151.51
             15.21,149.68 19.44,148.51 22.00,147.90
             29.71,146.05 45.93,147.75 52.96,151.07
             57.80,153.35 57.97,156.26 66.00,158.96
             75.86,162.28 87.67,162.55 89.00,175.00 Z" />
</svg>
