<svg version="1.1" xmlns="http://www.w3.org/2000/svg" xmlns:xlink="http://www.w3.org/1999/xlink" width="48" height="48"><defs><linearGradient x1="14.22989" y1="16.18391" x2="54.98331" y2="53.02929" gradientUnits="userSpaceOnUse" id="color-1"><stop offset="0" stop-color="#000000" stop-opacity="0.3"></stop><stop offset="1" stop-color="#000000" stop-opacity="0"></stop></linearGradient><filter id="dropshadow-base"><feColorMatrix type="matrix" values="0 0 0 0 0  0 0 0 0 0  0 0 0 0 0  0 0 0 .8 0"></feColorMatrix> <feOffset dx="0" dy="1"></feOffset> <feGaussianBlur stdDeviation="1"></feGaussianBlur> <feComposite in="SourceGraphic"></feComposite></filter><filter id="dropshadow-banner" x="-10%" y="-10%" width="120%" height="130%"><feColorMatrix type="matrix" values="0 0 0 0 0  0 0 0 0 0  0 0 0 0 0  0 0 0 .4 0"></feColorMatrix> <feOffset dx="0" dy="1"></feOffset> <feGaussianBlur stdDeviation="0.5"></feGaussianBlur> <feComposite in="SourceGraphic"></feComposite></filter></defs><g fill="none" fill-rule="nonzero" stroke="none" stroke-width="none" stroke-linecap="butt" stroke-linejoin="miter" stroke-miterlimit="10" stroke-dasharray="" stroke-dashoffset="0" font-family="none" font-weight="none" font-size="none" text-anchor="none" style="mix-blend-mode: normal"><path d="M2,24c0,-12.15026 9.84974,-22 22,-22c12.15026,0 22,9.84974 22,22c0,12.15026 -9.84974,22 -22,22c-12.15026,0 -22,-9.84974 -22,-22z" id="base 1 5" fill="#008080" stroke-width="1"></path><path d="M14.80205,31.24393l0,0c-0.35356,-0.35356 -0.57216,-0.84206 -0.57216,-1.38186l0.00977,-11.72413c0,-1.0796 0.86465,-1.95402 1.94425,-1.95402h15.63217c0.5398,0 1.0283,0.21861 1.38186,0.57216l12.23375,12.23375c-1.88844,8.14335 -8.29853,14.55344 -16.44187,16.44187z" fill="url(#color-1)" stroke-width="1"></path><path d="M31.81609,16.18391h-15.63217c-1.0796,0 -1.94425,0.87442 -1.94425,1.95402l-0.00977,11.72413c0,1.0796 0.87442,1.95402 1.95402,1.95402h15.63217c1.0796,0 1.95402,-0.87442 1.95402,-1.95402v-11.72413c0,-1.0796 -0.87442,-1.95402 -1.95402,-1.95402zM31.81609,29.86207h-15.63217v-9.77011l7.81609,4.88505l7.81609,-4.88505zM24,23.02299l-7.81609,-4.88505h15.63217z" fill="none" stroke-width="0"></path><path d="M33.77011,18.13793v11.72413c0,1.0796 -0.87442,1.95402 -1.95402,1.95402h-15.63217c-1.0796,0 -1.95402,-0.87442 -1.95402,-1.95402l0.00977,-11.72413c0,-1.0796 0.86465,-1.95402 1.94425,-1.95402h15.63217c1.0796,0 1.95402,0.87442 1.95402,1.95402zM31.81609,20.09196l-7.81609,4.88505l-7.81609,-4.88505v9.77011h15.63217zM31.81609,18.13793h-15.63217l7.81609,4.88505z" fill="#ffffff" stroke-width="0"></path><path d="M2,24c0,-12.15026 9.84974,-22 22,-22c12.15026,0 22,9.84974 22,22c0,12.15026 -9.84974,22 -22,22c-12.15026,0 -22,-9.84974 -22,-22z" id="base 1 1 1" fill="none" stroke-width="1"></path><g fill="#000000" stroke-width="1" font-family="Roboto, sans-serif" font-weight="400" font-size="14" text-anchor="start"></g><rect x="2" y="2" width="44" height="22" fill="none" stroke-width="1"></rect><path d="M2,24v-22h44v22z" fill="none" stroke-width="1"></path><path d="M2,24v-22h44v22z" fill="none" stroke-width="1"></path><path d="M2,24v-22h44v22z" fill="none" stroke-width="1"></path><path d="M2,24v-22h44v22z" fill="none" stroke-width="1"></path></g></svg>