<svg id="Capa_1" data-name="Capa 1" xmlns="http://www.w3.org/2000/svg" viewBox="0 0 446.9 178.24"><defs><style>.cls-1{fill:#f5bb4d;}.cls-2{fill:#881316;}.cls-3{fill:#666665;opacity:0.52;}</style></defs><title>logo</title><path class="cls-1" d="M57.07,2.38h6.73V4.3H66V2.38h6.41V3.88a0.83,0.83,0,0,1-.33.67l-0.95.71V22.9H58.35V5.26l-1-.72a0.79,0.79,0,0,1-.32-0.63V2.38Z"/><path class="cls-1" d="M39.12,7.51h6.73V9.43h2.24V7.51h6.41V9a0.88,0.88,0,0,1-.35.7l-0.93.7V22.9H40.4V10.39l-1-.72A0.82,0.82,0,0,1,39.12,9V7.51Z"/><path class="cls-1" d="M37.51,24.82h9.62V28h5.13V24.82l9.94-.16v3.69H68V24.82l4.49,0v7.33H40.64l-2.86-4a1.42,1.42,0,0,1-.27-0.83V24.82Z"/><polygon class="cls-1" points="40.72 34.57 73.51 34.57 73.51 66.57 33.67 66.57 40.72 34.57"/><path class="cls-1" d="M32.7,69.71H72.46v6.73H27.89V74.9a1.61,1.61,0,0,1,.51-1.18Z"/><rect class="cls-1" x="27.89" y="79.09" width="44.57" height="8.38"/><path class="cls-1" d="M114.22,51.59c3.77,0.48,8.82,4.49,11.7,4.49s10.91,0.13,9.86-18c-0.16-2.77-4.49,7.49-10.18,9.62-5.3,2-6.25,0-6.25,0s-0.72-1.84,1.6-3.29,5.16-3.12,6-12.58c0.43-4.73-16.51-12.34-21.32-14.59S88,9.45,80.88.13c-0.66-.87-2,2.79-2.12,4.56,0,0.7,0,1.2,0,1.42V87.34s25.32,4,32.54,36.12c1.12,5,18-21.22,15.71-31.42-1.36-6.18-4-12.29-12.18-18.17S106.45,66,106.45,66a12.89,12.89,0,0,0,4.81,1.28c2.24,0,5.88-1.5,6.52-2.67,0.53-1,.2-7.23.07-9.35a0.57,0.57,0,0,0-.72-0.52,23.93,23.93,0,0,1-5.07.9,3.48,3.48,0,0,1-2.89-2.73C109.21,52,110.46,51.11,114.22,51.59Zm-12.34-21a7.83,7.83,0,0,1-4.13-3.85s3.17-.92,5.29-0.32a42.46,42.46,0,0,1,4.93,2C108.57,28.63,106.55,32.28,101.88,30.55Zm4.65,17.39s0.85-5.17,1.55-5.85,4.53,1.31,6.31,2,2.36,0.6,2.57,1a2.6,2.6,0,0,1,0,1.84c-0.24.08-3.93-.76-5.69-0.48A22.45,22.45,0,0,0,106.53,47.95Z"/><path class="cls-2" d="M12.34,125.82H58.68a6.59,6.59,0,0,0,6.57-6.57v-1.13a6.59,6.59,0,0,0-6.57-6.57H12.34a6.59,6.59,0,0,0-6.57,6.57v1.13A6.59,6.59,0,0,0,12.34,125.82Zm52.91,28.54v-1.13a6.59,6.59,0,0,0-6.57-6.57H12.34a6.59,6.59,0,0,0-6.57,6.57v1.13a6.59,6.59,0,0,0,6.57,6.57H58.68A6.59,6.59,0,0,0,65.25,154.36Zm0,16.19A6.59,6.59,0,0,0,58.68,164H24.21a6.59,6.59,0,0,0-6.57,6.57v1.13a6.59,6.59,0,0,0,6.57,6.57H58.68a6.59,6.59,0,0,0,6.57-6.57v-1.13Zm-6.57-27.09a6.59,6.59,0,0,0,6.57-6.57v-1.13a6.59,6.59,0,0,0-6.57-6.57H6.57A6.59,6.59,0,0,0,0,135.76v1.13a6.59,6.59,0,0,0,6.57,6.57H58.68ZM63.31,95H27.89c0.32,16.51,19.56,14.11,19.56,14.11H59a9.47,9.47,0,0,1,9.32,9.37v0.31a9.3,9.3,0,0,1-5.93,8.58,9.23,9.23,0,0,1-1,17.49,9.21,9.21,0,0,1,.78,17.56,9.25,9.25,0,0,1,6.06,8.66h0a9.16,9.16,0,0,1-3.31,7.1c21.84-.81,38-19,38-41.08v-1C102.92,113.54,85.92,95,63.31,95Z"/><path class="cls-3" d="M16.94,177.92h46.7l1.29,0"/><path class="cls-2" d="M152.09,164.41A8.44,8.44,0,0,0,151,166a4.23,4.23,0,0,0-.48,2A4.89,4.89,0,0,0,152,171.5a5,5,0,0,0,1.58,1A4.95,4.95,0,0,0,160,166a4.8,4.8,0,0,0-1.14-1.61,0.6,0.6,0,0,1-.17-0.24,0.8,0.8,0,0,1-.06-0.3,0.43,0.43,0,0,1,.17-0.37,0.64,0.64,0,0,1,.38-0.13,0.65,0.65,0,0,1,.48.17,5.94,5.94,0,0,1,1.43,2,6.07,6.07,0,0,1,.51,2.48,6,6,0,0,1-.48,2.39,6.11,6.11,0,0,1-3.25,3.25,6.16,6.16,0,0,1-4.77,0,6.28,6.28,0,0,1-2-1.31,6.09,6.09,0,0,1-1.32-1.94,6,6,0,0,1-.48-2.39,5.88,5.88,0,0,1,.5-2.41,6.33,6.33,0,0,1,1.37-2,1,1,0,0,1,.25-0.17,0.68,0.68,0,0,1,.31-0.08,0.46,0.46,0,0,1,.38.17,0.64,0.64,0,0,1,.13.4A0.59,0.59,0,0,1,152.09,164.41Z"/><path class="cls-2" d="M149.34,156.29a6,6,0,0,1,.48-2.39,6.18,6.18,0,0,1,3.27-3.27,6.16,6.16,0,0,1,4.77,0,6.09,6.09,0,0,1,1.94,1.32,6.28,6.28,0,0,1,1.31,2,6.16,6.16,0,0,1,0,4.77,6.11,6.11,0,0,1-3.25,3.25,6.16,6.16,0,0,1-4.77,0,6.28,6.28,0,0,1-2-1.31,6.09,6.09,0,0,1-1.32-1.94A6,6,0,0,1,149.34,156.29Zm1.19,0a4.89,4.89,0,0,0,1.44,3.49,5,5,0,0,0,1.58,1,4.94,4.94,0,0,0,6.46-6.46,5,5,0,0,0-1-1.58,5,5,0,0,0-5.42-1.06,4.91,4.91,0,0,0-2.64,2.64A4.87,4.87,0,0,0,150.54,156.29Z"/><path class="cls-2" d="M149.9,148.75a0.6,0.6,0,1,1,0-1.19h10.5v-4.89a0.6,0.6,0,1,1,1.19,0v5.48a0.59,0.59,0,0,1-.6.6H149.9Z"/><path class="cls-2" d="M149.9,141.31a0.59,0.59,0,0,1-.6-0.6v-5.85a0.6,0.6,0,1,1,1.19,0v5.25h4.29v-3.5a0.6,0.6,0,1,1,1.19,0v3.5h4.42v-5.25a0.6,0.6,0,1,1,1.19,0v5.85a0.59,0.59,0,0,1-.6.6H149.9Z"/><path class="cls-2" d="M157.17,126.53a0.6,0.6,0,1,1-1.19,0V123a0.53,0.53,0,0,1,.18-0.42,0.65,0.65,0,0,1,.43-0.15h0.15a6,6,0,0,1,3.47,2.11,6.26,6.26,0,0,1,1,1.8,6.06,6.06,0,0,1,.37,2.1,6,6,0,0,1-.48,2.39,6.11,6.11,0,0,1-3.25,3.25,6.16,6.16,0,0,1-4.77,0,6.28,6.28,0,0,1-2-1.31,6.09,6.09,0,0,1-1.32-1.94,6.16,6.16,0,0,1,.21-5.22,6.11,6.11,0,0,1,1.85-2.13,0.76,0.76,0,0,1,.4-0.13,0.58,0.58,0,0,1,.38.15,0.52,0.52,0,0,1,.18.42,0.75,0.75,0,0,1-.06.28,0.61,0.61,0,0,1-.21.26,6,6,0,0,0-1.56,1.94,4.75,4.75,0,0,0-.48,2A4.89,4.89,0,0,0,152,132a5,5,0,0,0,1.58,1,4.92,4.92,0,0,0,6.85-4.54,4.8,4.8,0,0,0-.24-1.53,5.13,5.13,0,0,0-.66-1.33,4.69,4.69,0,0,0-1-1.06,5.22,5.22,0,0,0-1.31-.72v2.67Z"/><path class="cls-2" d="M149.9,121.57a0.6,0.6,0,1,1,0-1.19H161a0.6,0.6,0,1,1,0,1.19H149.9Z"/><path class="cls-2" d="M149.34,113a6,6,0,0,1,.48-2.39,6.18,6.18,0,0,1,3.27-3.27,6.16,6.16,0,0,1,4.77,0,6.09,6.09,0,0,1,1.94,1.32,6.28,6.28,0,0,1,1.31,2,6.16,6.16,0,0,1,0,4.77,6.11,6.11,0,0,1-3.25,3.25,6.16,6.16,0,0,1-4.77,0,6.28,6.28,0,0,1-2-1.31,6.09,6.09,0,0,1-1.32-1.94A6,6,0,0,1,149.34,113Zm1.19,0a4.89,4.89,0,0,0,1.44,3.49,5,5,0,0,0,1.58,1,4.94,4.94,0,0,0,6.46-6.46,5,5,0,0,0-1-1.58,5,5,0,0,0-5.42-1.06,4.91,4.91,0,0,0-2.64,2.64A4.87,4.87,0,0,0,150.54,113Z"/><path class="cls-2" d="M149.92,102.46a0.61,0.61,0,0,1-.43-0.17,0.56,0.56,0,0,1-.18-0.42V98.73a3.19,3.19,0,0,1,.26-1.29,3.38,3.38,0,0,1,1.76-1.76,3.15,3.15,0,0,1,1.27-.26,3.27,3.27,0,0,1,2.33,1,3.46,3.46,0,0,1,.7,1,3.19,3.19,0,0,1,.26,1.29v2.54H161a0.6,0.6,0,1,1,0,1.19H149.92Zm0.58-1.19h4.19V98.73a2,2,0,0,0-.16-0.81,2.11,2.11,0,0,0-.45-0.67,2.14,2.14,0,0,0-.66-0.45,2,2,0,0,0-.82-0.16,2,2,0,0,0-.81.16,2.1,2.1,0,0,0-1.13,1.13,2.05,2.05,0,0,0-.16.81v2.54Z"/><path class="cls-2" d="M149.92,93.87a0.61,0.61,0,0,1-.43-0.17,0.56,0.56,0,0,1-.18-0.42V90.11a3.19,3.19,0,0,1,.26-1.29,3.38,3.38,0,0,1,1.76-1.76,3.24,3.24,0,0,1,2.42,0,3.46,3.46,0,0,1,1,.58,3.35,3.35,0,0,1,.73.88,3.16,3.16,0,0,1,.39,1.09l4.75-2.92,0.21-.11a0.65,0.65,0,0,1,.25,0,0.6,0.6,0,0,1,.35.14,0.49,0.49,0,0,1,.19.41,0.56,0.56,0,0,1-.1.32,0.81,0.81,0,0,1-.25.24l-5.37,3.29v1.79H161a0.6,0.6,0,1,1,0,1.19H149.92Zm0.58-1.19h4.19V90.11a2,2,0,0,0-.16-0.81,2.11,2.11,0,0,0-.45-0.67,2.14,2.14,0,0,0-.66-0.45,2,2,0,0,0-.82-0.16,2,2,0,0,0-.81.16,2.1,2.1,0,0,0-1.13,1.13,2.05,2.05,0,0,0-.16.81v2.56Z"/><path class="cls-2" d="M149.34,80a6,6,0,0,1,.48-2.39,6.18,6.18,0,0,1,3.27-3.27,6.16,6.16,0,0,1,4.77,0,6.09,6.09,0,0,1,1.94,1.32,6.29,6.29,0,0,1,1.31,2,6.16,6.16,0,0,1,0,4.77,6.11,6.11,0,0,1-3.25,3.25,6.16,6.16,0,0,1-4.77,0,6.29,6.29,0,0,1-2-1.31,6.09,6.09,0,0,1-1.32-1.94A6,6,0,0,1,149.34,80Zm1.19,0A4.89,4.89,0,0,0,152,83.53a5,5,0,0,0,1.58,1A4.94,4.94,0,0,0,160,78.11a5,5,0,0,0-1-1.58,5,5,0,0,0-5.42-1.06,4.91,4.91,0,0,0-2.64,2.64A4.87,4.87,0,0,0,150.54,80Z"/><path class="cls-2" d="M149.9,72.49a0.59,0.59,0,0,1-.6-0.6V66a0.6,0.6,0,1,1,1.19,0V71.3h4.29V68A0.6,0.6,0,1,1,156,68V71.3h5a0.6,0.6,0,1,1,0,1.19H149.9Z"/><path class="cls-2" d="M149.9,64.07a0.59,0.59,0,0,1-.6-0.6V57.62a0.6,0.6,0,1,1,1.19,0v5.25h4.29v-3.5a0.6,0.6,0,1,1,1.19,0v3.5h4.42V57.62a0.6,0.6,0,1,1,1.19,0v5.85a0.59,0.59,0,0,1-.6.6H149.9Z"/><path class="cls-2" d="M155.42,51.62q-0.17.58-.43,1.22a6,6,0,0,1-.63,1.17,3.47,3.47,0,0,1-.86.88,1.9,1.9,0,0,1-1.13.35,2.55,2.55,0,0,1-1.3-.33,3.21,3.21,0,0,1-1-.85,3.77,3.77,0,0,1-.6-1.16,4.26,4.26,0,0,1-.2-1.28,5.94,5.94,0,0,1,.07-0.88,4.13,4.13,0,0,1,.24-0.89,3.69,3.69,0,0,1,.48-0.86,3.58,3.58,0,0,1,.79-0.76,0.71,0.71,0,0,1,.4-0.12,0.65,0.65,0,0,1,.45.16,0.55,0.55,0,0,1,.18.43,0.6,0.6,0,0,1-.31.54,2,2,0,0,0-.61.54,2.6,2.6,0,0,0-.34.63,2.52,2.52,0,0,0-.14.63q0,0.32,0,.57a3.65,3.65,0,0,0,.1.81,2.68,2.68,0,0,0,.31.78,1.77,1.77,0,0,0,.57.59,1.61,1.61,0,0,0,.89.23,0.92,0.92,0,0,0,.69-0.34,3.34,3.34,0,0,0,.54-0.82,8.58,8.58,0,0,0,.4-1q0.17-.52.31-0.88a11.81,11.81,0,0,1,.58-1.33,4.25,4.25,0,0,1,.73-1,3.05,3.05,0,0,1,1-.67,3.34,3.34,0,0,1,1.33-.24,3.26,3.26,0,0,1,1.44.33,3.73,3.73,0,0,1,1.16.88,4.13,4.13,0,0,1,.77,1.26,4,4,0,0,1,.28,1.48,4.71,4.71,0,0,1-.14,1.13,5.5,5.5,0,0,1-.4,1.12,4.68,4.68,0,0,1-.63,1,2.69,2.69,0,0,1-.81.66,0.57,0.57,0,0,1-.31.1,0.64,0.64,0,0,1-.62-0.63,0.58,0.58,0,0,1,.31-0.54,1.75,1.75,0,0,0,.61-0.51A3.7,3.7,0,0,0,160,53.2a3.93,3.93,0,0,0,.27-0.82,3.66,3.66,0,0,0,.09-0.74,2.82,2.82,0,0,0-.19-1,2.9,2.9,0,0,0-.52-0.88,2.58,2.58,0,0,0-.78-0.61,2.11,2.11,0,0,0-1-.23,1.92,1.92,0,0,0-.9.2,2.1,2.1,0,0,0-.67.57,4.3,4.3,0,0,0-.52.87A10.49,10.49,0,0,0,155.42,51.62Z"/><path class="cls-2" d="M149.9,46.08a0.6,0.6,0,1,1,0-1.19H161a0.6,0.6,0,1,1,0,1.19H149.9Z"/><path class="cls-2" d="M149.34,37.5a6,6,0,0,1,.48-2.39,6.18,6.18,0,0,1,3.27-3.27,6.16,6.16,0,0,1,4.77,0,6.09,6.09,0,0,1,1.94,1.32,6.29,6.29,0,0,1,1.31,2,6.16,6.16,0,0,1,0,4.77,6.11,6.11,0,0,1-3.25,3.25,6.16,6.16,0,0,1-4.77,0,6.29,6.29,0,0,1-2-1.31,6.09,6.09,0,0,1-1.32-1.94A6,6,0,0,1,149.34,37.5Zm1.19,0A4.89,4.89,0,0,0,152,41a5,5,0,0,0,1.58,1A4.94,4.94,0,0,0,160,35.57,5,5,0,0,0,159,34a5,5,0,0,0-5.42-1.06,4.91,4.91,0,0,0-2.64,2.64A4.87,4.87,0,0,0,150.54,37.5Z"/><path class="cls-2" d="M149.9,29.69a0.59,0.59,0,0,1-.6-0.6,0.49,0.49,0,0,1,.09-0.32,1.39,1.39,0,0,1,.24-0.22L159,21.94h-9.1a0.6,0.6,0,1,1,0-1.19H161a0.59,0.59,0,0,1,.6.6,0.49,0.49,0,0,1-.13.35,1.35,1.35,0,0,1-.28.23l-9.31,6.58H161a0.6,0.6,0,1,1,0,1.19H149.9Z"/><path class="cls-2" d="M149.75,14.32a0.8,0.8,0,0,1-.3-0.21,0.49,0.49,0,0,1-.14-0.35,0.51,0.51,0,0,1,.13-0.35,0.89,0.89,0,0,1,.31-0.23l11-4.75a0.54,0.54,0,0,1,.23,0,0.59,0.59,0,0,1,.4.15,0.54,0.54,0,0,1,.17.42,0.56,0.56,0,0,1-.37.56l-3.52,1.54v5.41L161.21,18a0.59,0.59,0,0,1,.27.23,0.6,0.6,0,0,1,.1.33,0.58,0.58,0,0,1-.58.6,0.51,0.51,0,0,1-.23-0.06Zm1.79-.56,5,2.19V11.59Z"/><path class="cls-2" d="M149.9,7.06a0.6,0.6,0,1,1,0-1.19h10.5V1a0.59,0.59,0,0,1,.6-0.6,0.58,0.58,0,0,1,.42.17,0.58,0.58,0,0,1,.17.42V6.47a0.59,0.59,0,0,1-.6.6H149.9Z"/><path class="cls-2" d="M177.09,112.83V90.3h15.3v4.57H182.3v4.86h8.32v4.22H182.3v8.89h-5.21Z"/><path class="cls-2" d="M194.39,112.83V90.3h5.21v22.54h-5.21Z"/><path class="cls-2" d="M216.83,96.9a5,5,0,0,0-.7-0.48,12.61,12.61,0,0,0-1.43-.73,13.86,13.86,0,0,0-1.87-.67,7.47,7.47,0,0,0-2-.29,3.68,3.68,0,0,0-2,.48,1.57,1.57,0,0,0-.71,1.4,1.44,1.44,0,0,0,.32,1,2.84,2.84,0,0,0,.9.68,8.26,8.26,0,0,0,1.46.56l2,0.57a27,27,0,0,1,2.92,1,8.1,8.1,0,0,1,2.22,1.3,5.2,5.2,0,0,1,1.41,1.89,6.56,6.56,0,0,1,.49,2.67,6.68,6.68,0,0,1-.71,3.22,6,6,0,0,1-1.89,2.13,8,8,0,0,1-2.71,1.17,13.67,13.67,0,0,1-3.16.36,17.21,17.21,0,0,1-2.52-.19,18.47,18.47,0,0,1-2.52-.56,21.08,21.08,0,0,1-2.41-.87,13.08,13.08,0,0,1-2.16-1.17l2.29-4.54a6.46,6.46,0,0,0,.86.6,12.63,12.63,0,0,0,1.71.89,16.76,16.76,0,0,0,2.29.79,9.63,9.63,0,0,0,2.57.35q2.76,0,2.76-1.68a1.42,1.42,0,0,0-.41-1,3.89,3.89,0,0,0-1.14-.75,12.69,12.69,0,0,0-1.71-.62l-2.16-.63a18.76,18.76,0,0,1-2.7-1,7.38,7.38,0,0,1-1.9-1.29A4.57,4.57,0,0,1,203,99.66a6.19,6.19,0,0,1-.36-2.22,7.08,7.08,0,0,1,.67-3.14,6.79,6.79,0,0,1,1.81-2.3,7.88,7.88,0,0,1,2.65-1.41,10.53,10.53,0,0,1,3.19-.48,12.31,12.31,0,0,1,2.35.22,16.81,16.81,0,0,1,2.17.57,17.24,17.24,0,0,1,2,.79q0.92,0.44,1.65.89Z"/><path class="cls-2" d="M222.2,112.83V90.3h5.21v22.54H222.2Z"/><path class="cls-2" d="M240.54,113a9.65,9.65,0,0,1-4.38-1,11,11,0,0,1-3.38-2.59,11.76,11.76,0,0,1-2.19-3.67,12,12,0,0,1-.78-4.25,11.79,11.79,0,0,1,3.06-7.92,11,11,0,0,1,3.43-2.51,10,10,0,0,1,4.33-.94,9.66,9.66,0,0,1,4.38,1,10.92,10.92,0,0,1,3.38,2.6,11.73,11.73,0,0,1,2.17,3.68,12,12,0,0,1,.76,4.19,11.88,11.88,0,0,1-3,7.92,11,11,0,0,1-3.41,2.52A9.88,9.88,0,0,1,240.54,113Zm-5.43-11.43a8.76,8.76,0,0,0,.36,2.52,7.26,7.26,0,0,0,1,2.17,5.15,5.15,0,0,0,1.71,1.52,4.8,4.8,0,0,0,2.36.57,4.57,4.57,0,0,0,2.38-.6,5.47,5.47,0,0,0,1.7-1.57,6.93,6.93,0,0,0,1-2.19,9.42,9.42,0,0,0,.33-2.49,8.79,8.79,0,0,0-.36-2.52,6.86,6.86,0,0,0-1.06-2.16,5.28,5.28,0,0,0-1.71-1.49,4.76,4.76,0,0,0-2.32-.56,4.67,4.67,0,0,0-2.38.59,5.37,5.37,0,0,0-1.7,1.54,7,7,0,0,0-1,2.17A9,9,0,0,0,235.11,101.6Z"/><path class="cls-2" d="M270.29,94.87h-6.86v18h-5.21v-18h-6.89V90.3h19v4.57Z"/><path class="cls-2" d="M288.06,108.26v4.57H272.22V90.3h15.55v4.57H277.43v4.38h8.89v4.22h-8.89v4.79h10.63Z"/><path class="cls-2" d="M290.66,112.83V90.3h10.16a6.54,6.54,0,0,1,2.94.67,7.81,7.81,0,0,1,2.33,1.75,8.19,8.19,0,0,1,1.54,2.44,7.28,7.28,0,0,1,.56,2.76,7.86,7.86,0,0,1-1,3.84,6.89,6.89,0,0,1-2.7,2.7l5.17,8.38h-5.87l-4.54-7.27h-3.4v7.27h-5.21ZM295.87,101h4.76a2,2,0,0,0,1.59-.87,3.58,3.58,0,0,0,.67-2.24,3.15,3.15,0,0,0-.76-2.22,2.23,2.23,0,0,0-1.65-.83h-4.6V101Z"/><path class="cls-2" d="M309.33,112.83L318,90.3h4.22l8.63,22.54h-5.52l-1.75-5h-7l-1.71,5h-5.52Zm10.76-17-2.7,8.38h5.3Z"/><path class="cls-2" d="M332.28,112.83V90.3h9.62a6.61,6.61,0,0,1,3,.67,7.62,7.62,0,0,1,2.32,1.75,8.36,8.36,0,0,1,1.52,2.44,7.27,7.27,0,0,1,.56,2.76,7.91,7.91,0,0,1-.52,2.86,8.16,8.16,0,0,1-1.46,2.44,6.89,6.89,0,0,1-2.27,1.71,6.77,6.77,0,0,1-3,.63h-4.57v7.27h-5.21ZM337.48,101h4.25a2,2,0,0,0,1.59-.79,3.52,3.52,0,0,0,.67-2.32,4,4,0,0,0-.21-1.37,2.8,2.8,0,0,0-.56-1,2.13,2.13,0,0,0-.79-0.56,2.42,2.42,0,0,0-.89-0.17h-4.06V101Z"/><path class="cls-2" d="M367.16,108.26v4.57H351.32V90.3h15.55v4.57H356.53v4.38h8.89v4.22h-8.89v4.79h10.63Z"/><path class="cls-2" d="M379.41,108.39a4.29,4.29,0,0,0,2.25-.56,4.42,4.42,0,0,0,1.49-1.48,6.32,6.32,0,0,0,.81-2.11,12.37,12.37,0,0,0,.24-2.43V90.3h5.21v11.52a15.72,15.72,0,0,1-.59,4.38,10.09,10.09,0,0,1-1.81,3.55,8.48,8.48,0,0,1-3.11,2.4,10.63,10.63,0,0,1-4.49.87,10.5,10.5,0,0,1-4.6-.92,8.52,8.52,0,0,1-3.09-2.46,10.13,10.13,0,0,1-1.75-3.57,16,16,0,0,1-.56-4.25V90.3h5.21v11.52a11.66,11.66,0,0,0,.25,2.48,6.57,6.57,0,0,0,.83,2.1A4.08,4.08,0,0,0,379.41,108.39Z"/><path class="cls-2" d="M410,94.87h-6.86v18h-5.21v-18H391V90.3h19v4.57Z"/><path class="cls-2" d="M407.63,112.83L416.3,90.3h4.22l8.63,22.54h-5.52l-1.75-5h-7l-1.71,5h-5.52Zm10.76-17-2.7,8.38H421Z"/><path class="cls-2" d="M443.95,96.9a5,5,0,0,0-.7-0.48,12.6,12.6,0,0,0-1.43-.73,13.87,13.87,0,0,0-1.87-.67,7.48,7.48,0,0,0-2-.29,3.68,3.68,0,0,0-2,.48,1.57,1.57,0,0,0-.71,1.4,1.44,1.44,0,0,0,.32,1,2.85,2.85,0,0,0,.9.68,8.26,8.26,0,0,0,1.46.56l2,0.57a27,27,0,0,1,2.92,1,8.1,8.1,0,0,1,2.22,1.3,5.2,5.2,0,0,1,1.41,1.89,6.56,6.56,0,0,1,.49,2.67,6.68,6.68,0,0,1-.71,3.22,6,6,0,0,1-1.89,2.13,8,8,0,0,1-2.71,1.17,13.68,13.68,0,0,1-3.16.36,17.2,17.2,0,0,1-2.52-.19,18.47,18.47,0,0,1-2.52-.56,21.06,21.06,0,0,1-2.41-.87,13.07,13.07,0,0,1-2.16-1.17l2.29-4.54a6.45,6.45,0,0,0,.86.6,12.62,12.62,0,0,0,1.71.89,16.76,16.76,0,0,0,2.29.79,9.64,9.64,0,0,0,2.57.35q2.76,0,2.76-1.68a1.42,1.42,0,0,0-.41-1,3.89,3.89,0,0,0-1.14-.75,12.71,12.71,0,0,0-1.71-.62l-2.16-.63a18.77,18.77,0,0,1-2.7-1,7.38,7.38,0,0,1-1.9-1.29,4.58,4.58,0,0,1-1.13-1.68,6.19,6.19,0,0,1-.36-2.22,7.08,7.08,0,0,1,.67-3.14,6.79,6.79,0,0,1,1.81-2.3,7.88,7.88,0,0,1,2.65-1.41,10.53,10.53,0,0,1,3.19-.48,12.31,12.31,0,0,1,2.35.22,16.79,16.79,0,0,1,2.17.57,17.2,17.2,0,0,1,2,.79q0.92,0.44,1.65.89Z"/><path class="cls-2" d="M175.83,121.09h4.47a10.83,10.83,0,0,1,4.35.88,11.3,11.3,0,0,1,5.95,5.95,11.21,11.21,0,0,1,0,8.71,11.3,11.3,0,0,1-5.95,5.95,10.82,10.82,0,0,1-4.35.88h-4.47V121.09Zm2.39,20h2.09a8.66,8.66,0,0,0,3.43-.69,8.71,8.71,0,0,0,4.68-4.68,8.92,8.92,0,0,0,0-6.86,8.71,8.71,0,0,0-4.68-4.68,8.66,8.66,0,0,0-3.43-.69h-2.09v17.59Z"/><path class="cls-2" d="M193.69,121.09h12.37v2.39h-10v7.6h7.6v2.39h-7.6v7.6h10v2.39H193.69V121.09Z"/><path class="cls-2" d="M228.58,126a8.85,8.85,0,0,0-2.56,6.23,9,9,0,0,0,.64,3.32,8.73,8.73,0,0,0,4.83,4.83,9,9,0,0,0,3.32.64A8.85,8.85,0,0,0,241,138.5l1.67,1.67a10.9,10.9,0,0,1-3.7,2.46,11.19,11.19,0,0,1-8.41,0,11.27,11.27,0,0,1-6.16-6.16,11.19,11.19,0,0,1,0-8.41,11.27,11.27,0,0,1,6.16-6.16,11.19,11.19,0,0,1,8.41,0,10.91,10.91,0,0,1,3.7,2.46L241,126a8.85,8.85,0,0,0-6.23-2.56,9,9,0,0,0-3.32.64A8.48,8.48,0,0,0,228.58,126Z"/><path class="cls-2" d="M257.83,138.68h-9.15l-1.94,4.77h-2.56l9.09-22.36,9.12,22.36H259.8Zm-8.17-2.39h7.22l-3.61-8.86Z"/><path class="cls-2" d="M265.86,130.63a6.35,6.35,0,0,1-1-2.13,6,6,0,0,1-.16-2.36,6.18,6.18,0,0,1,.78-2.31,6.39,6.39,0,0,1,1.64-1.85,6.24,6.24,0,0,1,2.12-1.06,6,6,0,0,1,2.36-.16,6.2,6.2,0,0,1,2.33.78l1.73,1v2.71l-2.89-1.67a3.83,3.83,0,0,0-1.45-.48,3.79,3.79,0,0,0-1.46.1,4,4,0,0,0-1.31.64,3.54,3.54,0,0,0-1,1.13,3.81,3.81,0,0,0-.48,1.45,4,4,0,0,0,.09,1.46,3.52,3.52,0,0,0,.64,1.3,3.79,3.79,0,0,0,1.15,1l3.61,2.09a6.21,6.21,0,0,1,1.83,1.64,6.39,6.39,0,0,1,1,2.12,6,6,0,0,1,.16,2.36,6.18,6.18,0,0,1-.78,2.33,6.38,6.38,0,0,1-1.64,1.85,6.23,6.23,0,0,1-2.12,1.06,6,6,0,0,1-2.36.16,6.18,6.18,0,0,1-2.33-.78l-1.73-1v-2.77l2.89,1.67a3.55,3.55,0,0,0,1.45.51,3.78,3.78,0,0,0,1.46-.1,3.87,3.87,0,0,0,1.3-.64,4,4,0,0,0,1-1.13,4.08,4.08,0,0,0,.48-1.46,3.92,3.92,0,0,0-.09-1.45,3.54,3.54,0,0,0-.64-1.3,3.81,3.81,0,0,0-1.15-1l-3.61-2.09A6.19,6.19,0,0,1,265.86,130.63Z"/><path class="cls-2" d="M277.81,121.09h13.42v2.39h-5.52v20h-2.39v-20h-5.52v-2.39Z"/><path class="cls-2" d="M293.43,121.09h2.39v22.36h-2.39V121.09Z"/><path class="cls-2" d="M298,121.09h2.39v20h9.54v2.39H298V121.09Z"/><path class="cls-2" d="M312.16,121.09h2.39v20h9.54v2.39H312.16V121.09Z"/><path class="cls-2" d="M339.95,138.68h-9.15l-1.94,4.77h-2.56l9.09-22.36,9.12,22.36h-2.59Zm-8.17-2.39H339l-3.61-8.86Z"/><path class="cls-2" d="M182.36,163.55l-6.53-11.36h2.77l4.95,8.59,4.95-8.59h2.77l-6.53,11.36v11h-2.39v-11Z"/><path class="cls-2" d="M208.81,152.19h2.39v20h9.54v2.39H208.81V152.19Z"/><path class="cls-2" d="M222.94,152.19h12.37v2.39h-10v7.6h7.6v2.39h-7.6v7.6h10v2.39H222.94V152.19Z"/><path class="cls-2" d="M237.52,163.37a10.82,10.82,0,0,1,.88-4.35,11.3,11.3,0,0,1,5.95-5.95,11.21,11.21,0,0,1,8.71,0A11.3,11.3,0,0,1,259,159a11.21,11.21,0,0,1,0,8.71,11.3,11.3,0,0,1-5.95,5.95,11.21,11.21,0,0,1-8.71,0,11.3,11.3,0,0,1-5.95-5.95A10.81,10.81,0,0,1,237.52,163.37Zm2.39,0a8.65,8.65,0,0,0,.69,3.43,8.71,8.71,0,0,0,4.68,4.68,8.92,8.92,0,0,0,6.86,0,8.71,8.71,0,0,0,4.68-4.68,8.92,8.92,0,0,0,0-6.86,8.71,8.71,0,0,0-4.68-4.68,8.92,8.92,0,0,0-6.86,0,8.71,8.71,0,0,0-4.68,4.68A8.65,8.65,0,0,0,239.91,163.37Z"/><path class="cls-2" d="M262.09,152.19l12.79,15.65V152.19h2.39v22.36l-0.06-.06-12.73-15.62v15.68h-2.39V152.19Z"/></svg>