<svg version="1.1" xmlns="http://www.w3.org/2000/svg" xmlns:xlink="http://www.w3.org/1999/xlink" width="48" height="48"><defs><linearGradient x1="14.22988" y1="14.22989" x2="54.98331" y2="54.98332" gradientUnits="userSpaceOnUse" id="color-1"><stop offset="0" stop-color="#000000" stop-opacity="0.3"></stop><stop offset="1" stop-color="#000000" stop-opacity="0"></stop></linearGradient><filter id="dropshadow-base"><feColorMatrix type="matrix" values="0 0 0 0 0  0 0 0 0 0  0 0 0 0 0  0 0 0 .8 0"></feColorMatrix> <feOffset dx="0" dy="1"></feOffset> <feGaussianBlur stdDeviation="1"></feGaussianBlur> <feComposite in="SourceGraphic"></feComposite></filter><filter id="dropshadow-banner" x="-10%" y="-10%" width="120%" height="130%"><feColorMatrix type="matrix" values="0 0 0 0 0  0 0 0 0 0  0 0 0 0 0  0 0 0 .4 0"></feColorMatrix> <feOffset dx="0" dy="1"></feOffset> <feGaussianBlur stdDeviation="0.5"></feGaussianBlur> <feComposite in="SourceGraphic"></feComposite></filter></defs><g fill="none" fill-rule="nonzero" stroke="none" stroke-width="none" stroke-linecap="butt" stroke-linejoin="miter" stroke-miterlimit="10" stroke-dasharray="" stroke-dashoffset="0" font-family="none" font-weight="none" font-size="none" text-anchor="none" style="mix-blend-mode: normal"><path d="M2,24c0,-12.15026 9.84974,-22 22,-22c12.15026,0 22,9.84974 22,22c0,12.15026 -9.84974,22 -22,22c-12.15026,0 -22,-9.84974 -22,-22z" id="base 1 5" fill="#008080" stroke-width="1"></path><path d="M15.81106,32.18898c-0.97642,-0.97642 -1.58118,-2.32454 -1.58118,-3.81126v-8.75543c0,-2.9733 2.41898,-5.3924 5.39228,-5.3924h8.75543c1.48678,0 2.83495,0.60478 3.8114,1.58124l13.2306,13.2306c-1.89954,8.10139 -8.27651,14.47835 -16.37791,16.37788z" fill="url(#color-1)" stroke-width="1"></path><path d="M33.77011,19.62228v8.75543c0,2.9733 -2.41898,5.39239 -5.39251,5.39239h-8.75543c-2.9733,0 -5.39228,-2.41898 -5.39228,-5.39239v-8.75543c0,-2.9733 2.41898,-5.39239 5.39228,-5.39239h8.75543c2.97353,0 5.39263,2.41909 5.39251,5.39239zM32.03641,28.37772v-8.75543c0,-2.01734 -1.64135,-3.65869 -3.65881,-3.65869h-8.75543c-2.01734,0 -3.65858,1.64135 -3.65858,3.65869v8.75543c0,2.01745 1.64124,3.65881 3.65858,3.65869h8.75555c2.01745,0 3.65881,-1.64124 3.65881,-3.65869zM29.03502,24.00023c0,2.77624 -2.25867,5.03479 -5.03502,5.03479c-2.77635,0 -5.03502,-2.25855 -5.03502,-5.03479c0,-2.77635 2.25867,-5.03502 5.03502,-5.03502c2.77635,0 5.03502,2.25867 5.03502,5.03502zM27.30132,24.00012c0,-1.82039 -1.48093,-3.30132 -3.30132,-3.30132c-1.82039,0 -3.30132,1.48093 -3.30132,3.30132c0,1.82027 1.48104,3.30109 3.30132,3.30109c1.82027,0 3.30132,-1.48081 3.30132,-3.30109zM30.1454,17.86731c0.23694,0.23578 0.37217,0.56403 0.37217,0.89921c0,0.33403 -0.13523,0.66227 -0.37217,0.89921c-0.23694,0.23578 -0.56403,0.37217 -0.89921,0.37217c-0.33403,0 -0.66227,-0.13638 -0.89806,-0.37217c-0.23694,-0.23694 -0.37332,-0.56507 -0.37332,-0.89921c0,-0.33518 0.13627,-0.66343 0.37332,-0.89921c0.2359,-0.23694 0.56403,-0.37217 0.89806,-0.37217c0.33518,0 0.66343,0.13523 0.89921,0.37217z" fill="none" stroke-width="0"></path><path d="M33.77011,19.62228v8.75543c0,2.9733 -2.41898,5.39239 -5.39251,5.39239h-8.75543c-2.9733,0 -5.39228,-2.41898 -5.39228,-5.39239v-8.75543c0,-2.9733 2.41898,-5.39239 5.39228,-5.39239h8.75543c2.97353,0 5.39263,2.41909 5.39251,5.39239zM32.03641,28.37772v-8.75543c0,-2.01734 -1.64135,-3.65869 -3.65881,-3.65869h-8.75543c-2.01734,0 -3.65858,1.64135 -3.65858,3.65869v8.75543c0,2.01745 1.64124,3.65881 3.65858,3.65869h8.75555c2.01745,0 3.65881,-1.64124 3.65881,-3.65869zM29.03502,24.00023c0,2.77624 -2.25867,5.03479 -5.03502,5.03479c-2.77635,0 -5.03502,-2.25855 -5.03502,-5.03479c0,-2.77635 2.25867,-5.03502 5.03502,-5.03502c2.77635,0 5.03502,2.25867 5.03502,5.03502zM27.30132,24.00012c0,-1.82039 -1.48093,-3.30132 -3.30132,-3.30132c-1.82039,0 -3.30132,1.48093 -3.30132,3.30132c0,1.82027 1.48104,3.30109 3.30132,3.30109c1.82027,0 3.30132,-1.48081 3.30132,-3.30109zM30.1454,17.86731c0.23694,0.23578 0.37217,0.56403 0.37217,0.89921c0,0.33403 -0.13523,0.66227 -0.37217,0.89921c-0.23694,0.23578 -0.56403,0.37217 -0.89921,0.37217c-0.33403,0 -0.66227,-0.13638 -0.89806,-0.37217c-0.23694,-0.23694 -0.37332,-0.56507 -0.37332,-0.89921c0,-0.33518 0.13627,-0.66343 0.37332,-0.89921c0.2359,-0.23694 0.56403,-0.37217 0.89806,-0.37217c0.33518,0 0.66343,0.13523 0.89921,0.37217z" fill="#ffffff" stroke-width="0"></path><path d="M2,24c0,-12.15026 9.84974,-22 22,-22c12.15026,0 22,9.84974 22,22c0,12.15026 -9.84974,22 -22,22c-12.15026,0 -22,-9.84974 -22,-22z" id="base 1 1 1" fill="none" stroke-width="1"></path><g id="Layer_1 1 1" fill="#000000" stroke-width="1" font-family="Roboto, sans-serif" font-weight="400" font-size="14" text-anchor="start"><g></g><g></g><g></g><g></g><g></g><g></g><g></g><g></g><g></g><g></g><g></g><g></g><g></g><g></g><g></g><g></g></g><rect x="2" y="2" width="44" height="22" fill="none" stroke-width="1"></rect><path d="M2,24v-22h44v22z" fill="none" stroke-width="1"></path><path d="M2,24v-22h44v22z" fill="none" stroke-width="1"></path><path d="M2,24v-22h44v22z" fill="none" stroke-width="1"></path><path d="M2,24v-22h44v22z" fill="none" stroke-width="1"></path></g></svg>