<svg version="1.1" xmlns="http://www.w3.org/2000/svg" xmlns:xlink="http://www.w3.org/1999/xlink" width="48" height="48"><defs><linearGradient x1="14.22989" y1="14.22989" x2="54.98331" y2="54.98331" gradientUnits="userSpaceOnUse" id="color-1"><stop offset="0" stop-color="#000000" stop-opacity="0.3"></stop><stop offset="1" stop-color="#000000" stop-opacity="0"></stop></linearGradient><filter id="dropshadow-base"><feColorMatrix type="matrix" values="0 0 0 0 0  0 0 0 0 0  0 0 0 0 0  0 0 0 .8 0"></feColorMatrix> <feOffset dx="0" dy="1"></feOffset> <feGaussianBlur stdDeviation="1"></feGaussianBlur> <feComposite in="SourceGraphic"></feComposite></filter><filter id="dropshadow-banner" x="-10%" y="-10%" width="120%" height="130%"><feColorMatrix type="matrix" values="0 0 0 0 0  0 0 0 0 0  0 0 0 0 0  0 0 0 .4 0"></feColorMatrix> <feOffset dx="0" dy="1"></feOffset> <feGaussianBlur stdDeviation="0.5"></feGaussianBlur> <feComposite in="SourceGraphic"></feComposite></filter></defs><g fill="none" fill-rule="nonzero" stroke="none" stroke-width="none" stroke-linecap="butt" stroke-linejoin="miter" stroke-miterlimit="10" stroke-dasharray="" stroke-dashoffset="0" font-family="none" font-weight="none" font-size="none" text-anchor="none" style="mix-blend-mode: normal"><path d="M2,24c0,-12.15026 9.84974,-22 22,-22c12.15026,0 22,9.84974 22,22c0,12.15026 -9.84974,22 -22,22c-12.15026,0 -22,-9.84974 -22,-22z" id="base 1 9" fill="#c70499" stroke-width="1"></path><path d="M30.39979,14.74283c0.64246,0.24968 1.18732,0.58375 1.73047,1.1269l13.26686,13.26686c-1.91937,8.02469 -8.23589,14.3412 -16.26059,16.26054l-13.26684,-13.26684c-0.54315,-0.54315 -0.87722,-1.08804 -1.1269,-1.73047c-0.24154,-0.62149 -0.40667,-1.33168 -0.45414,-2.37163c-0.04755,-1.04205 -0.05876,-1.37476 -0.05876,-4.02819c0,-2.65342 0.01121,-2.98614 0.05876,-4.02819c0.04747,-1.03995 0.21261,-1.75014 0.45414,-2.37163c0.24968,-0.64246 0.58375,-1.18732 1.1269,-1.73047c0.54315,-0.54315 1.088,-0.87722 1.73047,-1.1269c0.62149,-0.24154 1.33168,-0.40667 2.37163,-0.45414c1.04209,-0.04755 1.37476,-0.0588 4.02819,-0.0588c2.65342,0 2.98614,0.01125 4.02819,0.0588c1.03995,0.04747 1.75014,0.21261 2.37163,0.45414z" fill="url(#color-1)" stroke-width="1"></path><path d="M23.99998,15.99031c2.60874,0 2.91772,0.00993 3.94794,0.05693c0.95258,0.04348 1.4699,0.20264 1.81421,0.3364c0.456,0.17724 0.78151,0.38899 1.12337,0.73086c0.34187,0.34187 0.55362,0.66737 0.73082,1.12337c0.1338,0.34431 0.29296,0.86163 0.33644,1.81417c0.047,1.03026 0.05693,1.33924 0.05693,3.94798c0,2.60874 -0.00993,2.91772 -0.05693,3.94794c-0.04348,0.95258 -0.20264,1.4699 -0.33644,1.81421c-0.1772,0.456 -0.38895,0.78151 -0.73082,1.12337c-0.34187,0.34187 -0.66737,0.55362 -1.12337,0.73082c-0.34431,0.1338 -0.86163,0.29296 -1.81421,0.33644c-1.03006,0.047 -1.33904,0.05693 -3.94794,0.05693c-2.6089,0 -2.91788,-0.00993 -3.94794,-0.05693c-0.95258,-0.04348 -1.4699,-0.20264 -1.81417,-0.33644c-0.45604,-0.1772 -0.78155,-0.38895 -1.12341,-0.73082c-0.34187,-0.34187 -0.55362,-0.66737 -0.73082,-1.12337c-0.1338,-0.34431 -0.29296,-0.86163 -0.33644,-1.81417c-0.047,-1.03026 -0.05693,-1.33924 -0.05693,-3.94798c0,-2.60874 0.00993,-2.91772 0.05693,-3.94794c0.04348,-0.95258 0.20264,-1.4699 0.33644,-1.81421c0.1772,-0.456 0.38895,-0.78151 0.73082,-1.12337c0.34187,-0.34187 0.66737,-0.55362 1.12341,-0.73086c0.34427,-0.13376 0.86159,-0.29292 1.81413,-0.3364c1.03026,-0.047 1.33924,-0.05693 3.94798,-0.05693zM23.99998,14.22989c-2.65342,0 -2.9861,0.01125 -4.02818,0.05879c-1.03995,0.04747 -1.75014,0.21261 -2.37163,0.45414c-0.64247,0.24968 -1.18733,0.58375 -1.73048,1.1269c-0.54315,0.54315 -0.87722,1.088 -1.1269,1.73048c-0.24154,0.62149 -0.40667,1.33168 -0.45414,2.37163c-0.04755,1.04205 -0.05876,1.37476 -0.05876,4.02818c0,2.65342 0.01121,2.98614 0.05876,4.02818c0.04747,1.03995 0.21261,1.75014 0.45414,2.37163c0.24968,0.64243 0.58375,1.18733 1.1269,1.73048c0.54315,0.54315 1.088,0.87722 1.73048,1.1269c0.62149,0.24154 1.33168,0.40667 2.37163,0.45414c1.04209,0.04755 1.37476,0.05876 4.02818,0.05876c2.65342,0 2.98614,-0.01121 4.02818,-0.05876c1.03995,-0.04747 1.75014,-0.21261 2.37163,-0.45414c0.64247,-0.24968 1.18733,-0.58375 1.73048,-1.1269c0.54315,-0.54315 0.87722,-1.088 1.1269,-1.73048c0.24154,-0.62149 0.40667,-1.33168 0.45414,-2.37163c0.04755,-1.04205 0.05879,-1.37476 0.05879,-4.02818c0,-2.65342 -0.01125,-2.98614 -0.05879,-4.02818c-0.04747,-1.03995 -0.21261,-1.75014 -0.45414,-2.37163c-0.24968,-0.64247 -0.58375,-1.18733 -1.1269,-1.73048c-0.54315,-0.54315 -1.088,-0.87722 -1.73048,-1.1269c-0.62149,-0.24154 -1.33168,-0.40667 -2.37163,-0.45414c-1.04205,-0.04755 -1.37476,-0.05879 -4.02818,-0.05879zM23.99998,18.98292c-2.77086,0 -5.0171,2.24624 -5.0171,5.0171c0,2.77086 2.24624,5.0171 5.0171,5.0171c2.77086,0 5.0171,-2.24624 5.0171,-5.0171c0,-2.77086 -2.24624,-5.0171 -5.0171,-5.0171zM23.99998,27.25674c-1.79862,0 -3.25672,-1.45811 -3.25672,-3.25672c0,-1.79862 1.45811,-3.25672 3.25672,-3.25672c1.79862,0 3.25672,1.45811 3.25672,3.25672c0,1.79862 -1.45811,3.25672 -3.25672,3.25672zM30.38769,18.7847c0,0.64751 -0.52488,1.17243 -1.1724,1.17243c-0.64751,0 -1.17243,-0.52492 -1.17243,-1.17243c0,-0.64751 0.52492,-1.1724 1.17243,-1.1724c0.64751,0 1.1724,0.52488 1.1724,1.1724z" fill="none" stroke-width="0"></path><path d="M23.99998,15.99031c-2.60874,0 -2.91772,0.00993 -3.94798,0.05693c-0.95254,0.04348 -1.46986,0.20264 -1.81413,0.3364c-0.45604,0.17724 -0.78155,0.38899 -1.12341,0.73086c-0.34187,0.34187 -0.55362,0.66737 -0.73082,1.12337c-0.1338,0.34431 -0.29296,0.86163 -0.33644,1.81421c-0.047,1.03022 -0.05693,1.3392 -0.05693,3.94794c0,2.60874 0.00993,2.91772 0.05693,3.94798c0.04348,0.95254 0.20264,1.46986 0.33644,1.81417c0.1772,0.456 0.38895,0.78151 0.73082,1.12337c0.34187,0.34187 0.66737,0.55362 1.12341,0.73082c0.34427,0.1338 0.86159,0.29296 1.81417,0.33644c1.03006,0.047 1.33904,0.05693 3.94794,0.05693c2.6089,0 2.91788,-0.00993 3.94794,-0.05693c0.95258,-0.04348 1.4699,-0.20264 1.81421,-0.33644c0.456,-0.1772 0.78151,-0.38895 1.12337,-0.73082c0.34187,-0.34187 0.55362,-0.66737 0.73082,-1.12337c0.1338,-0.34431 0.29296,-0.86163 0.33644,-1.81421c0.047,-1.03022 0.05693,-1.3392 0.05693,-3.94794c0,-2.60874 -0.00993,-2.91772 -0.05693,-3.94798c-0.04348,-0.95254 -0.20264,-1.46986 -0.33644,-1.81417c-0.1772,-0.456 -0.38895,-0.78151 -0.73082,-1.12337c-0.34187,-0.34187 -0.66737,-0.55362 -1.12337,-0.73086c-0.34431,-0.13376 -0.86163,-0.29292 -1.81421,-0.3364c-1.03022,-0.047 -1.3392,-0.05693 -3.94794,-0.05693zM28.02816,14.28869c1.03995,0.04747 1.75014,0.21261 2.37163,0.45414c0.64247,0.24968 1.18733,0.58375 1.73048,1.1269c0.54315,0.54315 0.87722,1.088 1.1269,1.73048c0.24154,0.62149 0.40667,1.33168 0.45414,2.37163c0.04755,1.04205 0.05879,1.37476 0.05879,4.02818c0,2.65342 -0.01125,2.98614 -0.05879,4.02818c-0.04747,1.03995 -0.21261,1.75014 -0.45414,2.37163c-0.24968,0.64247 -0.58375,1.18733 -1.1269,1.73048c-0.54315,0.54315 -1.088,0.87722 -1.73048,1.1269c-0.62149,0.24154 -1.33168,0.40667 -2.37163,0.45414c-1.04205,0.04755 -1.37476,0.05876 -4.02818,0.05876c-2.65342,0 -2.9861,-0.01121 -4.02818,-0.05876c-1.03995,-0.04747 -1.75014,-0.21261 -2.37163,-0.45414c-0.64247,-0.24968 -1.18733,-0.58375 -1.73048,-1.1269c-0.54315,-0.54315 -0.87722,-1.08804 -1.1269,-1.73048c-0.24154,-0.62149 -0.40667,-1.33168 -0.45414,-2.37163c-0.04755,-1.04205 -0.05876,-1.37476 -0.05876,-4.02818c0,-2.65342 0.01121,-2.98614 0.05876,-4.02818c0.04747,-1.03995 0.21261,-1.75014 0.45414,-2.37163c0.24968,-0.64247 0.58375,-1.18733 1.1269,-1.73048c0.54315,-0.54315 1.088,-0.87722 1.73048,-1.1269c0.62149,-0.24154 1.33168,-0.40667 2.37163,-0.45414c1.04209,-0.04755 1.37476,-0.05879 4.02818,-0.05879c2.65342,0 2.98614,0.01125 4.02818,0.05879zM29.01708,24.00002c0,2.77086 -2.24624,5.0171 -5.0171,5.0171c-2.77086,0 -5.0171,-2.24624 -5.0171,-5.0171c0,-2.77086 2.24624,-5.0171 5.0171,-5.0171c2.77086,0 5.0171,2.24624 5.0171,5.0171zM27.2567,24.00002c0,-1.79862 -1.45811,-3.25672 -3.25672,-3.25672c-1.79862,0 -3.25672,1.45811 -3.25672,3.25672c0,1.79862 1.45811,3.25672 3.25672,3.25672c1.79862,0 3.25672,-1.45811 3.25672,-3.25672zM30.38769,18.7847c0,0.64751 -0.52488,1.17243 -1.1724,1.17243c-0.64751,0 -1.17243,-0.52492 -1.17243,-1.17243c0,-0.64751 0.52492,-1.1724 1.17243,-1.1724c0.64751,0 1.1724,0.52488 1.1724,1.1724z" fill="#ffffff" stroke-width="0"></path><path d="M2,24c0,-12.15026 9.84974,-22 22,-22c12.15026,0 22,9.84974 22,22c0,12.15026 -9.84974,22 -22,22c-12.15026,0 -22,-9.84974 -22,-22z" id="base 1 5 1" fill="none" stroke-width="1"></path><path d="M2,24c0,-12.15026 9.84974,-22 22,-22c12.15026,0 22,9.84974 22,22c0,12.15026 -9.84974,22 -22,22c-12.15026,0 -22,-9.84974 -22,-22z" id="base 1 1 1" fill="none" stroke-width="1"></path><g id="Capa_1 1 1" fill="#000000" stroke-width="1" font-family="Roboto, sans-serif" font-weight="400" font-size="14" text-anchor="start"><g><g id="post-linkedin 1 1"></g></g><g></g><g></g><g></g><g></g><g></g><g></g><g></g><g></g><g></g><g></g><g></g><g></g><g></g><g></g><g></g></g><rect x="2" y="2" width="44" height="22" fill="none" stroke-width="1"></rect><path d="M2,24v-22h44v22z" fill="none" stroke-width="1"></path><path d="M2,24v-22h44v22z" fill="none" stroke-width="1"></path><path d="M2,24v-22h44v22z" fill="none" stroke-width="1"></path><path d="M2,24v-22h44v22z" fill="none" stroke-width="1"></path><g fill="#000000" stroke-width="1" font-family="Roboto, sans-serif" font-weight="400" font-size="14" text-anchor="start"><g></g></g><rect x="2" y="2" width="44" height="22" fill="none" stroke-width="1"></rect><path d="M2,24v-22h44v22z" fill="none" stroke-width="1"></path><path d="M2,24v-22h44v22z" fill="none" stroke-width="1"></path><path d="M2,24v-22h44v22z" fill="none" stroke-width="1"></path><path d="M2,24v-22h44v22z" fill="none" stroke-width="1"></path></g></svg>