<?xml version="1.0" encoding="UTF-8"?> <svg xmlns="http://www.w3.org/2000/svg" width="5700" height="1242" viewBox="0 0 5700 1242" fill="none"><path d="M548.543 352.543C636.915 352.543 708.553 280.904 708.553 192.533C708.553 104.162 636.915 32.5225 548.543 32.5225C460.172 32.5225 388.533 104.162 388.533 192.533C388.533 280.904 460.172 352.543 548.543 352.543Z" fill="url(#paint0_linear)"></path><path opacity="0.5" d="M548.543 352.543C636.915 352.543 708.553 280.904 708.553 192.533C708.553 104.162 636.915 32.5225 548.543 32.5225C460.172 32.5225 388.533 104.162 388.533 192.533C388.533 280.904 460.172 352.543 548.543 352.543Z" fill="url(#paint1_linear)"></path><path opacity="0.3" d="M548.543 352.543C636.915 352.543 708.553 280.904 708.553 192.533C708.553 104.162 636.915 32.5225 548.543 32.5225C460.172 32.5225 388.533 104.162 388.533 192.533C388.533 280.904 460.172 352.543 548.543 352.543Z" fill="#23BCE7"></path><path d="M1114 0C1110.1 11.7081 811.759 371.189 571.093 402.41C218.117 447.942 54.2041 245.869 54.2041 245.869C54.2041 245.869 223.32 610.12 569.792 577.164C898.052 545.943 1114 0 1114 0Z" fill="#BBBBBB"></path><path d="M0 806.121C9.97353 799.183 464.42 688.606 675.598 807.422C986.079 981.742 996.92 1241.49 996.92 1241.49C996.92 1241.49 1078.44 848.183 780.971 667.792C499.544 496.941 0 806.121 0 806.121Z" fill="url(#paint2_linear)"></path><path opacity="0.5" d="M0 806.121C9.97353 799.183 464.42 688.606 675.598 807.422C986.079 981.742 996.92 1241.49 996.92 1241.49C996.92 1241.49 1078.44 848.183 780.971 667.792C499.544 496.941 0 806.121 0 806.121Z" fill="#0074AE"></path><path d="M1191.79 758C1177.13 758 1164.13 754 1152.79 746C1141.46 738 1132.63 727.167 1126.29 713.5C1119.96 699.5 1116.79 683.5 1116.79 665.5V392.5C1116.79 385.167 1119.13 379.167 1123.79 374.5C1128.46 369.833 1134.46 367.5 1141.79 367.5C1149.13 367.5 1155.13 369.833 1159.79 374.5C1164.46 379.167 1166.79 385.167 1166.79 392.5V665.5C1166.79 677.833 1169.13 688 1173.79 696C1178.46 704 1184.46 708 1191.79 708H1204.29C1210.96 708 1216.29 710.333 1220.29 715C1224.63 719.667 1226.79 725.667 1226.79 733C1226.79 740.333 1223.63 746.333 1217.29 751C1210.96 755.667 1202.79 758 1192.79 758H1191.79ZM1368.06 760C1343.73 760 1321.89 754 1302.56 742C1283.23 729.667 1267.89 713.167 1256.56 692.5C1245.56 671.5 1240.06 647.833 1240.06 621.5C1240.06 595.167 1246.06 571.5 1258.06 550.5C1270.39 529.5 1286.89 513 1307.56 501C1328.56 488.667 1352.06 482.5 1378.06 482.5C1404.06 482.5 1427.39 488.667 1448.06 501C1468.73 513 1485.06 529.5 1497.06 550.5C1509.39 571.5 1515.56 595.167 1515.56 621.5V733C1515.56 740.333 1513.06 746.5 1508.06 751.5C1503.39 756.167 1497.39 758.5 1490.06 758.5C1482.73 758.5 1476.56 756.167 1471.56 751.5C1466.89 746.5 1464.56 740.333 1464.56 733V714.5C1452.89 728.5 1438.73 739.667 1422.06 748C1405.73 756 1387.73 760 1368.06 760ZM1378.06 715C1395.06 715 1410.23 711 1423.56 703C1436.89 694.667 1447.39 683.5 1455.06 669.5C1462.73 655.167 1466.56 639.167 1466.56 621.5C1466.56 603.5 1462.73 587.5 1455.06 573.5C1447.39 559.167 1436.89 548 1423.56 540C1410.23 531.667 1395.06 527.5 1378.06 527.5C1361.39 527.5 1346.23 531.667 1332.56 540C1319.23 548 1308.56 559.167 1300.56 573.5C1292.89 587.5 1289.06 603.5 1289.06 621.5C1289.06 639.167 1292.89 655.167 1300.56 669.5C1308.56 683.5 1319.23 694.667 1332.56 703C1346.23 711 1361.39 715 1378.06 715ZM4502.78 766C4493.44 766 4485.28 762.667 4478.28 756C4471.61 749 4468.28 740.833 4468.28 731.5C4468.28 721.833 4471.61 713.667 4478.28 707C4485.28 700 4493.44 696.5 4502.78 696.5C4512.44 696.5 4520.61 700 4527.28 707C4533.94 713.667 4537.28 721.833 4537.28 731.5C4537.28 740.833 4533.94 749 4527.28 756C4520.61 762.667 4512.44 766 4502.78 766ZM4625.42 758.5C4618.09 758.5 4611.92 756.167 4606.92 751.5C4602.25 746.5 4599.92 740.333 4599.92 733V510C4599.92 502.333 4602.25 496.167 4606.92 491.5C4611.92 486.833 4618.09 484.5 4625.42 484.5C4633.09 484.5 4639.25 486.833 4643.92 491.5C4648.59 496.167 4650.92 502.333 4650.92 510V515.5C4661.25 505.167 4673.75 497 4688.42 491C4703.09 485 4718.92 482 4735.92 482C4758.92 482 4779.42 487 4797.42 497C4815.75 506.667 4830.09 521 4840.42 540C4851.09 559 4856.42 582.333 4856.42 610V733C4856.42 740.333 4853.92 746.5 4848.92 751.5C4844.25 756.167 4838.25 758.5 4830.92 758.5C4823.59 758.5 4817.42 756.167 4812.42 751.5C4807.75 746.5 4805.42 740.333 4805.42 733V610C4805.42 581.667 4797.75 561 4782.42 548C4767.42 534.667 4748.59 528 4725.92 528C4711.92 528 4699.25 530.833 4687.92 536.5C4676.59 542.167 4667.59 549.833 4660.92 559.5C4654.25 568.833 4650.92 579.667 4650.92 592V733C4650.92 740.333 4648.59 746.5 4643.92 751.5C4639.25 756.167 4633.09 758.5 4625.42 758.5ZM5061.74 760C5034.07 760 5009.41 754.167 4987.74 742.5C4966.41 730.5 4949.57 714.167 4937.24 693.5C4925.24 672.5 4919.24 648.5 4919.24 621.5C4919.24 594.167 4924.91 570.167 4936.24 549.5C4947.91 528.5 4963.91 512.167 4984.24 500.5C5004.57 488.5 5027.91 482.5 5054.24 482.5C5080.24 482.5 5102.57 488.333 5121.24 500C5139.91 511.333 5154.07 527.167 5163.74 547.5C5173.74 567.5 5178.74 590.667 5178.74 617C5178.74 623.333 5176.57 628.667 5172.24 633C5167.91 637 5162.41 639 5155.74 639H4965.74C4969.41 662 4979.91 680.833 4997.24 695.5C5014.91 709.833 5036.41 717 5061.74 717C5072.07 717 5082.57 715.167 5093.24 711.5C5104.24 707.5 5113.07 703 5119.74 698C5124.74 694.333 5130.07 692.5 5135.74 692.5C5141.74 692.167 5146.91 693.833 5151.24 697.5C5156.91 702.5 5159.91 708 5160.24 714C5160.57 720 5157.91 725.167 5152.24 729.5C5140.91 738.5 5126.74 745.833 5109.74 751.5C5093.07 757.167 5077.07 760 5061.74 760ZM5054.24 525.5C5029.57 525.5 5009.74 532.333 4994.74 546C4979.74 559.667 4970.24 577.333 4966.24 599H5132.74C5129.74 577.667 5121.57 560.167 5108.24 546.5C5094.91 532.5 5076.91 525.5 5054.24 525.5ZM5335.79 758C5319.12 758 5304.12 753.833 5290.79 745.5C5277.45 736.833 5266.95 725.167 5259.29 710.5C5251.62 695.833 5247.79 679.333 5247.79 661V537.5H5224.79C5217.79 537.5 5212.12 535.5 5207.79 531.5C5203.45 527.5 5201.29 522.5 5201.29 516.5C5201.29 509.833 5203.45 504.5 5207.79 500.5C5212.12 496.5 5217.79 494.5 5224.79 494.5H5247.79V422.5C5247.79 415.167 5250.12 409.167 5254.79 404.5C5259.45 399.833 5265.45 397.5 5272.79 397.5C5280.12 397.5 5286.12 399.833 5290.79 404.5C5295.45 409.167 5297.79 415.167 5297.79 422.5V494.5H5340.29C5347.29 494.5 5352.95 496.5 5357.29 500.5C5361.62 504.5 5363.79 509.833 5363.79 516.5C5363.79 522.5 5361.62 527.5 5357.29 531.5C5352.95 535.5 5347.29 537.5 5340.29 537.5H5297.79V661C5297.79 674.333 5301.45 685.5 5308.79 694.5C5316.12 703.5 5325.12 708 5335.79 708H5352.79C5358.79 708 5363.79 710.333 5367.79 715C5372.12 719.667 5374.29 725.667 5374.29 733C5374.29 740.333 5371.45 746.333 5365.79 751C5360.45 755.667 5353.45 758 5344.79 758H5335.79Z" fill="url(#paint3_radial)"></path><path d="M1614.46 758C1607.13 758 1600.96 755.5 1595.96 750.5C1591.3 745.5 1588.96 739.5 1588.96 732.5V537.5H1567.46C1560.46 537.5 1554.8 535.5 1550.46 531.5C1546.13 527.5 1543.96 522.5 1543.96 516.5C1543.96 509.833 1546.13 504.5 1550.46 500.5C1554.8 496.5 1560.46 494.5 1567.46 494.5H1588.96V486C1588.96 448.667 1600.13 419 1622.46 397C1645.13 375 1681.8 364 1732.46 364C1756.46 364 1775.63 368 1789.96 376C1804.63 384 1811.96 394.333 1811.96 407C1811.96 421.667 1802.96 429 1784.96 429C1777.96 429 1771.63 427.5 1765.96 424.5C1760.63 421.5 1755.3 418 1749.96 414C1744.63 410 1738.96 406.5 1732.96 403.5C1726.96 400.5 1719.96 399 1711.96 399C1699.63 399 1687.96 401.5 1676.96 406.5C1665.96 411.167 1656.96 419.833 1649.96 432.5C1643.3 445.167 1639.96 463 1639.96 486V494.5H1691.46C1698.46 494.5 1704.13 496.5 1708.46 500.5C1712.8 504.5 1714.96 509.833 1714.96 516.5C1714.96 522.5 1712.8 527.5 1708.46 531.5C1704.13 535.5 1698.46 537.5 1691.46 537.5H1639.96V732.5C1639.96 739.5 1637.46 745.5 1632.46 750.5C1627.8 755.5 1621.8 758 1614.46 758ZM1780.96 758C1773.63 758 1767.46 755.667 1762.46 751C1757.8 746 1755.46 739.833 1755.46 732.5V510C1755.46 502.333 1757.8 496.167 1762.46 491.5C1767.46 486.833 1773.63 484.5 1780.96 484.5C1788.63 484.5 1794.8 486.833 1799.46 491.5C1804.13 496.167 1806.46 502.333 1806.46 510V732.5C1806.46 739.833 1804.13 746 1799.46 751C1794.8 755.667 1788.63 758 1780.96 758ZM1991.39 760C1968.06 760 1946.39 756.5 1926.39 749.5C1906.72 742.167 1891.39 733 1880.39 722C1875.39 716.667 1873.22 710.667 1873.89 704C1874.89 697 1878.22 691.333 1883.89 687C1890.56 681.667 1897.06 679.5 1903.39 680.5C1910.06 681.167 1915.72 684 1920.39 689C1926.06 695.333 1935.06 701.333 1947.39 707C1960.06 712.333 1974.06 715 1989.39 715C2008.72 715 2023.39 711.833 2033.39 705.5C2043.72 699.167 2049.06 691 2049.39 681C2049.72 671 2044.89 662.333 2034.89 655C2025.22 647.667 2007.39 641.667 1981.39 637C1947.72 630.333 1923.22 620.333 1907.89 607C1892.89 593.667 1885.39 577.333 1885.39 558C1885.39 541 1890.39 527 1900.39 516C1910.39 504.667 1923.22 496.333 1938.89 491C1954.56 485.333 1970.89 482.5 1987.89 482.5C2009.89 482.5 2029.39 486 2046.39 493C2063.39 500 2076.89 509.667 2086.89 522C2091.56 527.333 2093.72 533 2093.39 539C2093.06 544.667 2090.22 549.5 2084.89 553.5C2079.56 557.167 2073.22 558.333 2065.89 557C2058.56 555.667 2052.39 552.667 2047.39 548C2039.06 540 2030.06 534.5 2020.39 531.5C2010.72 528.5 1999.56 527 1986.89 527C1972.22 527 1959.72 529.5 1949.39 534.5C1939.39 539.5 1934.39 546.833 1934.39 556.5C1934.39 562.5 1935.89 568 1938.89 573C1942.22 577.667 1948.56 582 1957.89 586C1967.22 589.667 1980.89 593.333 1998.89 597C2036.56 604.333 2062.56 614.833 2076.89 628.5C2091.56 641.833 2098.89 658.333 2098.89 678C2098.89 693.333 2094.72 707.167 2086.39 719.5C2078.39 731.833 2066.39 741.667 2050.39 749C2034.72 756.333 2015.06 760 1991.39 760ZM2186.38 758C2179.04 758 2172.88 755.667 2167.88 751C2163.21 746 2160.88 739.833 2160.88 732.5V510C2160.88 502.333 2163.21 496.167 2167.88 491.5C2172.88 486.833 2179.04 484.5 2186.38 484.5C2194.04 484.5 2200.21 486.833 2204.88 491.5C2209.54 496.167 2211.88 502.333 2211.88 510V732.5C2211.88 739.833 2209.54 746 2204.88 751C2200.21 755.667 2194.04 758 2186.38 758ZM2186.38 440C2177.38 440 2169.54 436.833 2162.88 430.5C2156.54 423.833 2153.38 416 2153.38 407C2153.38 398 2156.54 390.333 2162.88 384C2169.54 377.333 2177.38 374 2186.38 374C2195.38 374 2203.04 377.333 2209.38 384C2216.04 390.333 2219.38 398 2219.38 407C2219.38 416 2216.04 423.833 2209.38 430.5C2203.04 436.833 2195.38 440 2186.38 440ZM2423.25 760C2396.25 760 2372.42 754.167 2351.75 742.5C2331.09 730.5 2314.75 714.167 2302.75 693.5C2291.09 672.5 2285.25 648.5 2285.25 621.5C2285.25 594.167 2291.09 570.167 2302.75 549.5C2314.75 528.5 2331.09 512.167 2351.75 500.5C2372.42 488.5 2396.25 482.5 2423.25 482.5C2449.92 482.5 2473.59 488.5 2494.25 500.5C2514.92 512.167 2531.09 528.5 2542.75 549.5C2554.75 570.167 2560.75 594.167 2560.75 621.5C2560.75 648.5 2554.92 672.5 2543.25 693.5C2531.59 714.167 2515.42 730.5 2494.75 742.5C2474.09 754.167 2450.25 760 2423.25 760ZM2423.25 715C2440.59 715 2455.92 711 2469.25 703C2482.59 695 2492.92 684 2500.25 670C2507.92 656 2511.75 639.833 2511.75 621.5C2511.75 603.167 2507.92 587 2500.25 573C2492.92 558.667 2482.59 547.5 2469.25 539.5C2455.92 531.5 2440.59 527.5 2423.25 527.5C2405.92 527.5 2390.59 531.5 2377.25 539.5C2363.92 547.5 2353.42 558.667 2345.75 573C2338.09 587 2334.25 603.167 2334.25 621.5C2334.25 639.833 2338.09 656 2345.75 670C2353.42 684 2363.92 695 2377.25 703C2390.59 711 2405.92 715 2423.25 715ZM2728.66 758C2711.99 758 2696.99 753.833 2683.66 745.5C2670.32 736.833 2659.82 725.167 2652.16 710.5C2644.49 695.833 2640.66 679.333 2640.66 661V537.5H2617.66C2610.66 537.5 2604.99 535.5 2600.66 531.5C2596.32 527.5 2594.16 522.5 2594.16 516.5C2594.16 509.833 2596.32 504.5 2600.66 500.5C2604.99 496.5 2610.66 494.5 2617.66 494.5H2640.66V422.5C2640.66 415.167 2642.99 409.167 2647.66 404.5C2652.32 399.833 2658.32 397.5 2665.66 397.5C2672.99 397.5 2678.99 399.833 2683.66 404.5C2688.32 409.167 2690.66 415.167 2690.66 422.5V494.5H2733.16C2740.16 494.5 2745.82 496.5 2750.16 500.5C2754.49 504.5 2756.66 509.833 2756.66 516.5C2756.66 522.5 2754.49 527.5 2750.16 531.5C2745.82 535.5 2740.16 537.5 2733.16 537.5H2690.66V661C2690.66 674.333 2694.32 685.5 2701.66 694.5C2708.99 703.5 2717.99 708 2728.66 708H2745.66C2751.66 708 2756.66 710.333 2760.66 715C2764.99 719.667 2767.16 725.667 2767.16 733C2767.16 740.333 2764.32 746.333 2758.66 751C2753.32 755.667 2746.32 758 2737.66 758H2728.66ZM2950.84 760C2923.17 760 2898.51 754.167 2876.84 742.5C2855.51 730.5 2838.67 714.167 2826.34 693.5C2814.34 672.5 2808.34 648.5 2808.34 621.5C2808.34 594.167 2814.01 570.167 2825.34 549.5C2837.01 528.5 2853.01 512.167 2873.34 500.5C2893.67 488.5 2917.01 482.5 2943.34 482.5C2969.34 482.5 2991.67 488.333 3010.34 500C3029.01 511.333 3043.17 527.167 3052.84 547.5C3062.84 567.5 3067.84 590.667 3067.84 617C3067.84 623.333 3065.67 628.667 3061.34 633C3057.01 637 3051.51 639 3044.84 639H2854.84C2858.51 662 2869.01 680.833 2886.34 695.5C2904.01 709.833 2925.51 717 2950.84 717C2961.17 717 2971.67 715.167 2982.34 711.5C2993.34 707.5 3002.17 703 3008.84 698C3013.84 694.333 3019.17 692.5 3024.84 692.5C3030.84 692.167 3036.01 693.833 3040.34 697.5C3046.01 702.5 3049.01 708 3049.34 714C3049.67 720 3047.01 725.167 3041.34 729.5C3030.01 738.5 3015.84 745.833 2998.84 751.5C2982.17 757.167 2966.17 760 2950.84 760ZM2943.34 525.5C2918.67 525.5 2898.84 532.333 2883.84 546C2868.84 559.667 2859.34 577.333 2855.34 599H3021.84C3018.84 577.667 3010.67 560.167 2997.34 546.5C2984.01 532.5 2966.01 525.5 2943.34 525.5ZM3150.39 758C3133.72 758 3125.39 749.667 3125.39 733V509.5C3125.39 492.833 3133.72 484.5 3150.39 484.5C3167.05 484.5 3175.39 492.833 3175.39 509.5V519C3185.39 507.333 3197.55 498.167 3211.89 491.5C3226.55 484.833 3242.39 481.5 3259.39 481.5C3279.39 481.5 3294.22 484.833 3303.89 491.5C3313.89 497.833 3317.72 505.5 3315.39 514.5C3313.72 521.5 3310.39 526.167 3305.39 528.5C3300.39 530.5 3294.55 530.833 3287.89 529.5C3266.55 525.167 3247.39 524.833 3230.39 528.5C3213.39 532.167 3199.89 539 3189.89 549C3180.22 559 3175.39 571.667 3175.39 587V733C3175.39 749.667 3167.05 758 3150.39 758ZM3455.03 760C3430.7 760 3408.87 754 3389.53 742C3370.2 729.667 3354.87 713.167 3343.53 692.5C3332.53 671.5 3327.03 647.833 3327.03 621.5C3327.03 595.167 3333.03 571.5 3345.03 550.5C3357.37 529.5 3373.87 513 3394.53 501C3415.53 488.667 3439.03 482.5 3465.03 482.5C3491.03 482.5 3514.37 488.667 3535.03 501C3555.7 513 3572.03 529.5 3584.03 550.5C3596.37 571.5 3602.53 595.167 3602.53 621.5V733C3602.53 740.333 3600.03 746.5 3595.03 751.5C3590.37 756.167 3584.37 758.5 3577.03 758.5C3569.7 758.5 3563.53 756.167 3558.53 751.5C3553.87 746.5 3551.53 740.333 3551.53 733V714.5C3539.87 728.5 3525.7 739.667 3509.03 748C3492.7 756 3474.7 760 3455.03 760ZM3465.03 715C3482.03 715 3497.2 711 3510.53 703C3523.87 694.667 3534.37 683.5 3542.03 669.5C3549.7 655.167 3553.53 639.167 3553.53 621.5C3553.53 603.5 3549.7 587.5 3542.03 573.5C3534.37 559.167 3523.87 548 3510.53 540C3497.2 531.667 3482.03 527.5 3465.03 527.5C3448.37 527.5 3433.2 531.667 3419.53 540C3406.2 548 3395.53 559.167 3387.53 573.5C3379.87 587.5 3376.03 603.5 3376.03 621.5C3376.03 639.167 3379.87 655.167 3387.53 669.5C3395.53 683.5 3406.2 694.667 3419.53 703C3433.2 711 3448.37 715 3465.03 715ZM3696.43 875C3689.1 875 3682.93 872.5 3677.93 867.5C3673.27 862.833 3670.93 856.833 3670.93 849.5V621.5C3671.27 595.167 3677.43 571.5 3689.43 550.5C3701.43 529.5 3717.77 513 3738.43 501C3759.1 488.667 3782.43 482.5 3808.43 482.5C3834.77 482.5 3858.27 488.667 3878.93 501C3899.6 513 3915.93 529.5 3927.93 550.5C3940.27 571.5 3946.43 595.167 3946.43 621.5C3946.43 647.833 3940.77 671.5 3929.43 692.5C3918.43 713.167 3903.27 729.667 3883.93 742C3864.6 754 3842.77 760 3818.43 760C3798.77 760 3780.6 756 3763.93 748C3747.6 739.667 3733.6 728.5 3721.93 714.5V849.5C3721.93 856.833 3719.6 862.833 3714.93 867.5C3710.27 872.5 3704.1 875 3696.43 875ZM3808.43 715C3825.43 715 3840.6 711 3853.93 703C3867.27 694.667 3877.77 683.5 3885.43 669.5C3893.43 655.167 3897.43 639.167 3897.43 621.5C3897.43 603.5 3893.43 587.5 3885.43 573.5C3877.77 559.167 3867.27 548 3853.93 540C3840.6 531.667 3825.43 527.5 3808.43 527.5C3791.77 527.5 3776.6 531.667 3762.93 540C3749.6 548 3739.1 559.167 3731.43 573.5C3723.77 587.5 3719.93 603.5 3719.93 621.5C3719.93 639.167 3723.77 655.167 3731.43 669.5C3739.1 683.5 3749.6 694.667 3762.93 703C3776.6 711 3791.77 715 3808.43 715ZM4045.5 758C4038.16 758 4032 755.667 4027 751C4022.33 746 4020 739.833 4020 732.5V510C4020 502.333 4022.33 496.167 4027 491.5C4032 486.833 4038.16 484.5 4045.5 484.5C4053.16 484.5 4059.33 486.833 4064 491.5C4068.66 496.167 4071 502.333 4071 510V732.5C4071 739.833 4068.66 746 4064 751C4059.33 755.667 4053.16 758 4045.5 758ZM4045.5 440C4036.5 440 4028.66 436.833 4022 430.5C4015.66 423.833 4012.5 416 4012.5 407C4012.5 398 4015.66 390.333 4022 384C4028.66 377.333 4036.5 374 4045.5 374C4054.5 374 4062.16 377.333 4068.5 384C4075.16 390.333 4078.5 398 4078.5 407C4078.5 416 4075.16 423.833 4068.5 430.5C4062.16 436.833 4054.5 440 4045.5 440ZM4272.38 760C4248.04 760 4226.21 754 4206.88 742C4187.54 729.667 4172.21 713.167 4160.88 692.5C4149.88 671.5 4144.38 647.833 4144.38 621.5C4144.38 595.167 4150.38 571.5 4162.38 550.5C4174.71 529.5 4191.21 513 4211.88 501C4232.88 488.667 4256.38 482.5 4282.38 482.5C4308.38 482.5 4331.71 488.667 4352.38 501C4373.04 513 4389.38 529.5 4401.38 550.5C4413.71 571.5 4419.88 595.167 4419.88 621.5V733C4419.88 740.333 4417.38 746.5 4412.38 751.5C4407.71 756.167 4401.71 758.5 4394.38 758.5C4387.04 758.5 4380.88 756.167 4375.88 751.5C4371.21 746.5 4368.88 740.333 4368.88 733V714.5C4357.21 728.5 4343.04 739.667 4326.38 748C4310.04 756 4292.04 760 4272.38 760ZM4282.38 715C4299.38 715 4314.54 711 4327.88 703C4341.21 694.667 4351.71 683.5 4359.38 669.5C4367.04 655.167 4370.88 639.167 4370.88 621.5C4370.88 603.5 4367.04 587.5 4359.38 573.5C4351.71 559.167 4341.21 548 4327.88 540C4314.54 531.667 4299.38 527.5 4282.38 527.5C4265.71 527.5 4250.54 531.667 4236.88 540C4223.54 548 4212.88 559.167 4204.88 573.5C4197.21 587.5 4193.38 603.5 4193.38 621.5C4193.38 639.167 4197.21 655.167 4204.88 669.5C4212.88 683.5 4223.54 694.667 4236.88 703C4250.54 711 4265.71 715 4282.38 715Z" fill="#7D7F82"></path><defs><linearGradient id="paint0_linear" x1="548.436" y1="32.646" x2="548.436" y2="352.628" gradientUnits="userSpaceOnUse"><stop stop-color="#23BCE7"></stop><stop offset="1" stop-color="#3C3E89"></stop></linearGradient><linearGradient id="paint1_linear" x1="409.856" y1="272.646" x2="687.015" y2="112.628" gradientUnits="userSpaceOnUse"><stop offset="0.3001" stop-color="#3C3E89" stop-opacity="0"></stop><stop offset="1" stop-color="#3C3E89"></stop></linearGradient><linearGradient id="paint2_linear" x1="197.068" y1="571.057" x2="996.549" y2="1241.84" gradientUnits="userSpaceOnUse"><stop stop-color="#3C3E89"></stop><stop offset="0.5" stop-color="#23BCE7"></stop><stop offset="1" stop-color="#3C3E89"></stop></linearGradient><radialGradient id="paint3_radial" cx="0" cy="0" r="1" gradientUnits="userSpaceOnUse" gradientTransform="translate(3236.88 596.102) rotate(90) scale(270.102 2462.88)"><stop stop-color="#2891BF"></stop><stop offset="1" stop-color="#0074AE"></stop></radialGradient></defs></svg> 