<svg version="1.1" xmlns="http://www.w3.org/2000/svg" xmlns:xlink="http://www.w3.org/1999/xlink" width="48" height="48"><defs><linearGradient x1="14.22989" y1="14.22989" x2="54.98331" y2="54.98331" gradientUnits="userSpaceOnUse" id="color-1"><stop offset="0" stop-color="#000000" stop-opacity="0.3"></stop><stop offset="1" stop-color="#000000" stop-opacity="0"></stop></linearGradient><filter id="dropshadow-base"><feColorMatrix type="matrix" values="0 0 0 0 0  0 0 0 0 0  0 0 0 0 0  0 0 0 .8 0"></feColorMatrix> <feOffset dx="0" dy="1"></feOffset> <feGaussianBlur stdDeviation="1"></feGaussianBlur> <feComposite in="SourceGraphic"></feComposite></filter><filter id="dropshadow-banner" x="-10%" y="-10%" width="120%" height="130%"><feColorMatrix type="matrix" values="0 0 0 0 0  0 0 0 0 0  0 0 0 0 0  0 0 0 .4 0"></feColorMatrix> <feOffset dx="0" dy="1"></feOffset> <feGaussianBlur stdDeviation="0.5"></feGaussianBlur> <feComposite in="SourceGraphic"></feComposite></filter></defs><g fill="none" fill-rule="nonzero" stroke="none" stroke-width="none" stroke-linecap="butt" stroke-linejoin="miter" stroke-miterlimit="10" stroke-dasharray="" stroke-dashoffset="0" font-family="none" font-weight="none" font-size="none" text-anchor="none" style="mix-blend-mode: normal"><path d="M2,24c0,-12.15026 9.84974,-22 22,-22c12.15026,0 22,9.84974 22,22c0,12.15026 -9.84974,22 -22,22c-12.15026,0 -22,-9.84974 -22,-22z" id="base 1 5" fill="#c70499" stroke-width="1"></path><path d="M14.80388,33.19612c-0.35417,-0.35417 -0.57399,-0.84267 -0.57399,-1.38003v-15.63217c0,-1.07471 0.87931,-1.95402 1.95402,-1.95402h15.63217c0.53736,0 1.02586,0.21983 1.38003,0.57399l12.54988,12.54988c-1.44773,9.46498 -8.92725,16.9445 -18.39223,18.39223z" fill="url(#color-1)" stroke-width="1"></path><path d="M31.81609,14.22989h-15.63217c-1.07471,0 -1.95402,0.87931 -1.95402,1.95402v15.63217c0,1.07471 0.87931,1.95402 1.95402,1.95402h15.63217c1.07471,0 1.95402,-0.87931 1.95402,-1.95402v-15.63217c0,-1.07471 -0.87931,-1.95402 -1.95402,-1.95402zM20.09196,30.83908h-2.93103v-8.7931h2.93103zM18.62644,20.38506c-0.97701,0 -1.75862,-0.78161 -1.75862,-1.75862c0,-0.97701 0.78161,-1.75862 1.75862,-1.75862c0.97701,0 1.75862,0.78161 1.75862,1.75862c0,0.97701 -0.78161,1.75862 -1.75862,1.75862zM30.83908,30.83908h-2.93103v-5.17816c0,-0.78157 -0.68391,-1.46552 -1.46552,-1.46552c-0.78161,0 -1.46552,0.68395 -1.46552,1.46552v5.17816h-2.93103v-8.7931h2.93103v1.17241c0.48851,-0.78161 1.56322,-1.36782 2.44253,-1.36782c1.85632,0 3.41954,1.56322 3.41954,3.41954z" fill="none" stroke-width="0"></path><path d="M33.77011,16.18391v15.63217c0,1.07471 -0.87931,1.95402 -1.95402,1.95402h-15.63217c-1.07471,0 -1.95402,-0.87931 -1.95402,-1.95402v-15.63217c0,-1.07471 0.87931,-1.95402 1.95402,-1.95402h15.63217c1.07471,0 1.95402,0.87931 1.95402,1.95402zM20.09196,22.04598h-2.93103v8.7931h2.93103zM20.38506,18.62644c0,-0.97701 -0.78161,-1.75862 -1.75862,-1.75862c-0.97701,0 -1.75862,0.78161 -1.75862,1.75862c0,0.97701 0.78161,1.75862 1.75862,1.75862c0.97701,0 1.75862,-0.78161 1.75862,-1.75862zM30.83908,25.27011c0,-1.85632 -1.56322,-3.41954 -3.41954,-3.41954c-0.87931,0 -1.95402,0.58621 -2.44253,1.36782v-1.17241h-2.93103v8.7931h2.93103v-5.17816c0,-0.78157 0.68391,-1.46552 1.46552,-1.46552c0.78161,0 1.46552,0.68395 1.46552,1.46552v5.17816h2.93103z" fill="#ffffff" stroke-width="0"></path><path d="M2,24c0,-12.15026 9.84974,-22 22,-22c12.15026,0 22,9.84974 22,22c0,12.15026 -9.84974,22 -22,22c-12.15026,0 -22,-9.84974 -22,-22z" id="base 1 1 1" fill="none" stroke-width="1"></path><g id="Capa_1 1 1" fill="#000000" stroke-width="1" font-family="Roboto, sans-serif" font-weight="400" font-size="14" text-anchor="start"><g><g id="post-linkedin 1 1"></g></g><g></g><g></g><g></g><g></g><g></g><g></g><g></g><g></g><g></g><g></g><g></g><g></g><g></g><g></g><g></g></g><rect x="2" y="2" width="44" height="22" fill="none" stroke-width="1"></rect><path d="M2,24v-22h44v22z" fill="none" stroke-width="1"></path><path d="M2,24v-22h44v22z" fill="none" stroke-width="1"></path><path d="M2,24v-22h44v22z" fill="none" stroke-width="1"></path><path d="M2,24v-22h44v22z" fill="none" stroke-width="1"></path></g></svg>