<svg version="1.1" xmlns="http://www.w3.org/2000/svg" xmlns:xlink="http://www.w3.org/1999/xlink" width="48" height="48"><defs><linearGradient x1="17.16092" y1="14.22989" x2="52.05228" y2="54.98331" gradientUnits="userSpaceOnUse" id="color-1"><stop offset="0" stop-color="#000000" stop-opacity="0.3"></stop><stop offset="1" stop-color="#000000" stop-opacity="0"></stop></linearGradient><filter id="dropshadow-base"><feColorMatrix type="matrix" values="0 0 0 0 0  0 0 0 0 0  0 0 0 0 0  0 0 0 .8 0"></feColorMatrix> <feOffset dx="0" dy="1"></feOffset> <feGaussianBlur stdDeviation="1"></feGaussianBlur> <feComposite in="SourceGraphic"></feComposite></filter><filter id="dropshadow-banner" x="-10%" y="-10%" width="120%" height="130%"><feColorMatrix type="matrix" values="0 0 0 0 0  0 0 0 0 0  0 0 0 0 0  0 0 0 .4 0"></feColorMatrix> <feOffset dx="0" dy="1"></feOffset> <feGaussianBlur stdDeviation="0.5"></feGaussianBlur> <feComposite in="SourceGraphic"></feComposite></filter></defs><g fill="none" fill-rule="nonzero" stroke="none" stroke-width="none" stroke-linecap="butt" stroke-linejoin="miter" stroke-miterlimit="10" stroke-dasharray="" stroke-dashoffset="0" font-family="none" font-weight="none" font-size="none" text-anchor="none" style="mix-blend-mode: normal"><path d="M2,24c0,-12.15026 9.84974,-22 22,-22c12.15026,0 22,9.84974 22,22c0,12.15026 -9.84974,22 -22,22c-12.15026,0 -22,-9.84974 -22,-22z" id="base 1 9" fill="#008080" stroke-width="1"></path><path d="M28.83559,16.23337l15.69318,15.69318c-1.97204,5.10391 -5.79265,9.28808 -10.64084,11.73149l-9.88793,-9.88793c0,0 -6.83908,-7.57183 -6.83908,-12.70114c0,-3.77615 3.06293,-6.83908 6.83908,-6.83908c1.88807,0 3.59784,0.76573 4.83559,2.00348z" fill="url(#color-1)" stroke-width="1"></path><path d="M24,14.22989c-3.77615,0 -6.83908,3.06293 -6.83908,6.83908c0,5.12931 6.83908,12.70114 6.83908,12.70114c0,0 6.83908,-7.57183 6.83908,-12.70114c0,-3.77615 -3.06293,-6.83908 -6.83908,-6.83908zM24,16.18391c1.0796,0 1.95402,0.87442 1.95402,1.95402c0,1.0796 -0.87442,1.95402 -1.95402,1.95402c-1.0796,0 -1.95402,-0.87442 -1.95402,-1.95402c0,-1.0796 0.87442,-1.95402 1.95402,-1.95402zM24,25.95402c-1.63161,0 -3.06293,-0.83534 -3.90804,-2.09569c0.01466,-1.29454 2.60862,-2.00776 3.90804,-2.00776c1.29942,0 3.8885,0.71322 3.90804,2.00776c-0.84511,1.26034 -2.27644,2.09569 -3.90804,2.09569z" fill="none" stroke-width="0"></path><path d="M30.83908,21.06897c0,5.12931 -6.83908,12.70114 -6.83908,12.70114c0,0 -6.83908,-7.57183 -6.83908,-12.70114c0,-3.77615 3.06293,-6.83908 6.83908,-6.83908c3.77615,0 6.83908,3.06293 6.83908,6.83908zM22.04598,18.13793c0,1.0796 0.87442,1.95402 1.95402,1.95402c1.0796,0 1.95402,-0.87442 1.95402,-1.95402c0,-1.0796 -0.87442,-1.95402 -1.95402,-1.95402c-1.0796,0 -1.95402,0.87442 -1.95402,1.95402zM27.90804,23.85833c-0.01954,-1.29454 -2.60862,-2.00776 -3.90804,-2.00776c-1.29942,0 -3.89339,0.71322 -3.90804,2.00776c0.84511,1.26034 2.27644,2.09569 3.90804,2.09569c1.63161,0 3.06293,-0.83534 3.90804,-2.09569z" fill="#ffffff" stroke-width="0"></path><path d="M2,24c0,-12.15026 9.84974,-22 22,-22c12.15026,0 22,9.84974 22,22c0,12.15026 -9.84974,22 -22,22c-12.15026,0 -22,-9.84974 -22,-22z" id="base 1 5 1" fill="none" stroke-width="1"></path><path d="M2,24c0,-12.15026 9.84974,-22 22,-22c12.15026,0 22,9.84974 22,22c0,12.15026 -9.84974,22 -22,22c-12.15026,0 -22,-9.84974 -22,-22z" id="base 1 1 1" fill="none" stroke-width="1"></path><g id="Layer_1 1 1" fill="#000000" stroke-width="1" font-family="Roboto, sans-serif" font-weight="400" font-size="14" text-anchor="start"><g></g><g></g><g></g><g></g><g></g><g></g><g></g><g></g><g></g><g></g><g></g><g></g><g></g><g></g><g></g><g></g></g><rect x="2" y="2" width="44" height="22" fill="none" stroke-width="1"></rect><path d="M2,24v-22h44v22z" fill="none" stroke-width="1"></path><path d="M2,24v-22h44v22z" fill="none" stroke-width="1"></path><path d="M2,24v-22h44v22z" fill="none" stroke-width="1"></path><path d="M2,24v-22h44v22z" fill="none" stroke-width="1"></path><g fill="#000000" stroke-width="1" font-family="Roboto, sans-serif" font-weight="400" font-size="14" text-anchor="start"></g><rect x="2" y="2" width="44" height="22" fill="none" stroke-width="1"></rect><path d="M2,24v-22h44v22z" fill="none" stroke-width="1"></path><path d="M2,24v-22h44v22z" fill="none" stroke-width="1"></path><path d="M2,24v-22h44v22z" fill="none" stroke-width="1"></path><path d="M2,24v-22h44v22z" fill="none" stroke-width="1"></path></g></svg>