<?xml version="1.0" encoding="UTF-8" standalone="no"?>
<svg xmlns="http://www.w3.org/2000/svg"
     xmlns:svg="http://www.w3.org/2000/svg"
     version="1.1"
     width="1271.19mm" height="1271.19mm"
     viewBox="0 0 300 300">
  <path id="Selección"
        fill="black" stroke="black" stroke-width="1"
        d="M 0.00,232.00
           C 0.00,232.00 0.00,184.00 0.00,184.00
             0.02,172.60 2.15,177.87 6.59,169.98
             6.59,169.98 10.91,159.00 10.91,159.00
             10.91,159.00 20.63,144.00 20.63,144.00
             24.51,138.67 36.47,127.52 42.00,123.97
             48.05,120.08 57.51,117.58 59.17,109.00
             59.17,109.00 56.00,87.00 56.00,87.00
             55.83,72.14 54.61,66.12 66.00,55.02
             70.26,50.86 72.17,49.32 78.00,47.90
             82.97,46.68 88.85,46.94 94.00,47.00
             107.92,47.17 109.62,50.08 121.00,54.54
             121.00,54.54 132.00,58.38 132.00,58.38
             137.36,61.06 146.24,68.68 152.96,66.36
             160.49,63.77 157.38,52.48 162.33,43.00
             168.75,30.67 178.01,18.42 190.00,10.99
             190.00,10.99 197.96,7.18 197.96,7.18
             206.05,2.64 200.02,0.02 212.00,0.00
             212.00,0.00 244.00,0.00 244.00,0.00
             255.99,0.02 250.26,2.82 259.00,7.47
             259.00,7.47 267.00,11.07 267.00,11.07
             273.37,14.85 284.15,25.79 288.31,32.00
             288.31,32.00 293.07,41.98 293.07,41.98
             297.83,49.79 299.98,44.56 300.00,56.00
             300.00,56.00 300.00,96.00 300.00,96.00
             290.80,99.21 292.30,106.19 286.79,113.00
             278.38,123.42 274.30,127.16 263.00,133.92
             259.65,135.93 257.85,137.52 254.00,138.90
             246.53,141.57 234.77,140.68 233.18,147.10
             231.35,154.45 240.00,163.92 242.52,170.00
             242.52,170.00 245.71,180.00 245.71,180.00
             245.71,180.00 251.20,192.00 251.20,192.00
             253.21,199.53 254.16,216.66 251.20,224.00
             249.84,228.34 247.14,231.70 243.96,235.00
             240.81,238.26 238.35,240.69 234.00,242.24
             229.35,243.89 225.82,243.99 221.00,244.00
             213.48,244.01 209.56,244.30 202.00,242.71
             197.99,241.87 194.12,239.66 190.00,241.03
             180.67,244.13 180.30,251.04 175.87,258.00
             172.76,262.89 160.63,275.89 155.96,279.37
             155.96,279.37 140.00,289.48 140.00,289.48
             133.20,292.60 126.90,291.91 124.00,300.00
             124.00,300.00 68.00,300.00 68.00,300.00
             65.21,290.72 56.09,292.35 48.00,287.03
             31.59,276.23 23.77,268.41 12.97,252.00
             7.65,243.91 9.28,234.79 0.00,232.00 Z
           M 223.00,18.28
           C 216.60,19.21 211.92,19.13 206.00,22.35
             195.55,28.03 186.14,35.26 180.41,46.00
             178.09,50.36 177.23,56.17 176.12,61.00
             176.12,61.00 167.78,97.00 167.78,97.00
             167.78,97.00 157.23,117.00 157.23,117.00
             155.82,119.34 153.10,122.40 152.62,125.00
             151.53,130.82 162.63,140.34 167.00,143.45
             169.46,145.21 171.77,147.18 175.00,146.36
             175.00,146.36 200.00,132.76 200.00,132.76
             200.00,132.76 251.00,120.86 251.00,120.86
             255.71,119.02 267.16,110.11 270.10,105.99
             272.03,103.28 278.39,92.85 279.61,90.00
             282.49,81.76 282.48,62.37 279.61,54.00
             278.39,49.70 276.44,47.66 274.09,44.00
             272.07,40.86 271.35,39.00 268.79,36.00
             264.85,31.39 262.00,29.50 257.00,26.39
             254.22,24.66 250.90,22.23 248.00,20.96
             242.25,18.46 229.37,17.69 223.00,18.28 Z
           M 85.00,65.30
           C 73.06,67.67 73.88,74.78 74.00,85.00
             74.18,100.46 76.83,101.48 82.68,114.00
             85.53,120.11 84.48,120.42 88.88,127.00
             88.88,127.00 95.63,138.00 95.63,138.00
             115.26,165.88 139.80,190.68 169.00,208.46
             180.25,215.31 175.09,212.23 186.00,217.32
             198.10,222.97 200.19,225.82 215.00,226.00
             219.99,226.05 227.80,226.35 231.57,222.57
             235.43,218.72 235.33,209.15 234.83,204.00
             233.64,191.67 232.00,192.06 227.51,182.00
             222.98,171.83 225.72,174.81 218.59,164.00
             216.70,161.13 214.76,156.45 212.61,154.28
             206.84,148.43 199.66,151.79 194.00,155.58
             194.00,155.58 185.00,161.66 185.00,161.66
             176.63,167.92 171.45,172.10 162.00,163.87
             162.00,163.87 141.00,143.00 141.00,143.00
             137.35,139.35 132.56,135.21 131.39,130.00
             128.52,117.20 147.44,108.16 147.95,95.00
             148.32,85.59 142.61,86.02 135.00,80.71
             124.76,73.55 127.23,76.66 118.00,72.48
             118.00,72.48 110.00,68.18 110.00,68.18
             103.43,65.24 92.17,64.58 85.00,65.30 Z
           M 65.00,132.33
           C 56.21,134.48 44.22,144.26 38.28,151.00
             28.59,161.99 31.71,157.96 25.73,170.00
             25.73,170.00 21.38,179.00 21.38,179.00
             17.67,189.21 17.76,203.29 18.83,214.00
             19.33,218.97 19.20,221.95 20.77,227.00
             22.10,231.26 23.75,233.24 25.63,237.00
             27.67,241.08 28.92,245.19 31.63,249.00
             35.82,254.89 46.86,266.00 53.00,269.65
             53.00,269.65 64.00,274.81 64.00,274.81
             68.99,277.29 70.14,278.67 76.00,280.10
             83.13,281.84 98.52,282.20 106.00,281.28
             111.20,280.64 114.79,280.70 120.00,278.90
             120.00,278.90 130.00,274.26 130.00,274.26
             145.99,266.51 152.63,259.47 162.56,245.00
             167.43,237.91 172.36,228.69 161.00,224.40
             159.59,223.87 157.51,223.30 156.00,223.50
             151.87,224.03 150.11,227.94 148.05,231.00
             144.96,235.61 138.93,243.12 135.00,246.98
             129.49,252.40 128.44,252.38 122.00,255.78
             107.88,263.23 107.59,262.02 92.00,262.00
             80.82,261.98 79.57,260.49 70.00,255.48
             70.00,255.48 62.00,251.35 62.00,251.35
             52.44,244.66 41.77,229.41 38.90,218.00
             37.71,213.25 37.49,204.94 37.85,200.00
             38.28,193.85 37.65,191.08 40.35,185.00
             44.52,175.56 50.14,167.03 58.00,160.30
             58.00,160.30 75.25,146.90 75.25,146.90
             78.20,142.40 75.37,131.54 65.00,132.33 Z
           M 86.00,164.41
           C 75.28,167.44 70.43,170.36 63.55,179.00
             61.33,181.80 59.53,183.62 58.13,187.00
             55.42,193.55 55.97,201.05 56.00,208.00
             56.02,211.95 56.13,215.23 57.56,219.00
             60.66,227.14 71.99,238.61 80.00,242.01
             83.54,243.51 88.18,243.95 92.00,244.00
             106.71,244.17 110.07,245.09 122.00,235.45
             128.19,230.44 129.31,229.49 132.40,222.00
             133.85,218.47 136.25,213.81 135.31,210.00
             133.21,201.42 119.48,191.57 113.17,184.97
             113.17,184.97 105.32,176.83 105.32,176.83
             100.01,171.05 94.86,163.82 86.00,164.41 Z" />
</svg>
