<svg version="1.1" xmlns="http://www.w3.org/2000/svg" xmlns:xlink="http://www.w3.org/1999/xlink" width="48" height="48"><defs><linearGradient x1="14.22989" y1="14.22989" x2="54.98331" y2="54.98331" gradientUnits="userSpaceOnUse" id="color-1"><stop offset="0" stop-color="#000000" stop-opacity="0.3"></stop><stop offset="1" stop-color="#000000" stop-opacity="0"></stop></linearGradient><filter id="dropshadow-base"><feColorMatrix type="matrix" values="0 0 0 0 0  0 0 0 0 0  0 0 0 0 0  0 0 0 .8 0"></feColorMatrix> <feOffset dx="0" dy="1"></feOffset> <feGaussianBlur stdDeviation="1"></feGaussianBlur> <feComposite in="SourceGraphic"></feComposite></filter><filter id="dropshadow-banner" x="-10%" y="-10%" width="120%" height="130%"><feColorMatrix type="matrix" values="0 0 0 0 0  0 0 0 0 0  0 0 0 0 0  0 0 0 .4 0"></feColorMatrix> <feOffset dx="0" dy="1"></feOffset> <feGaussianBlur stdDeviation="0.5"></feGaussianBlur> <feComposite in="SourceGraphic"></feComposite></filter></defs><g fill="none" fill-rule="nonzero" stroke="none" stroke-width="none" stroke-linecap="butt" stroke-linejoin="miter" stroke-miterlimit="10" stroke-dasharray="" stroke-dashoffset="0" font-family="none" font-weight="none" font-size="none" text-anchor="none" style="mix-blend-mode: normal"><path d="M2,24c0,-12.15026 9.84974,-22 22,-22c12.15026,0 22,9.84974 22,22c0,12.15026 -9.84974,22 -22,22c-12.15026,0 -22,-9.84974 -22,-22z" id="base 1 9" fill="#780c5f" stroke-width="1"></path><path d="M19.63466,28.36534c-3.33948,-3.33948 -5.40477,-7.95314 -5.40477,-13.04988c0,-0.60249 0.48851,-1.08557 1.08557,-1.08557h3.79949c0.30125,0 0.57264,0.12077 0.76872,0.31685c0,0 0,0 0,0l22.11189,22.11189c-1.93123,2.74041 -4.47261,5.01995 -7.42655,6.64105z" fill="url(#color-1)" stroke-width="1"></path><path transform="translate(0.55174,0.55174) scale(0.97701,0.97701)" d="M18.02778,22.66111c1.6,3.14444 4.17222,5.71667 7.32222,7.31667l2.44444,-2.45c0.30556,-0.30556 0.74444,-0.39444 1.12778,-0.27222c1.24444,0.41111 2.58333,0.63333 3.96667,0.63333c0.61667,0 1.11111,0.49444 1.11111,1.11111v3.88889c0,0.61667 -0.49444,1.11111 -1.11111,1.11111c-10.43333,0 -18.88889,-8.45556 -18.88889,-18.88889c0,-0.61667 0.5,-1.11111 1.11111,-1.11111h3.88889c0.61667,0 1.11111,0.49444 1.11111,1.11111c0,1.38333 0.22222,2.72222 0.63333,3.96667c0.12222,0.38333 0.03333,0.82222 -0.27222,1.12778z" fill="none" stroke-width="0"></path><path d="M18.16507,22.69189c1.56322,3.07216 4.07631,5.58525 7.15389,7.14846l2.38825,-2.39368c0.29853,-0.29853 0.72733,-0.38538 1.10185,-0.26596c1.21584,0.40166 2.52394,0.61877 3.87548,0.61877c0.60249,0 1.08557,0.48308 1.08557,1.08557v3.79949c0,0.60249 -0.48308,1.08557 -1.08557,1.08557c-10.19348,0 -18.45465,-8.26117 -18.45465,-18.45465c0,-0.60249 0.48851,-1.08557 1.08557,-1.08557h3.79949c0.60249,0 1.08557,0.48308 1.08557,1.08557c0,1.35153 0.21711,2.65964 0.61877,3.87548c0.11941,0.37452 0.03257,0.80332 -0.26596,1.10185z" fill="#ffffff" stroke-width="0"></path><path d="M2,24c0,-12.15026 9.84974,-22 22,-22c12.15026,0 22,9.84974 22,22c0,12.15026 -9.84974,22 -22,22c-12.15026,0 -22,-9.84974 -22,-22z" id="base 1 5 1" fill="none" stroke-width="1"></path><path d="M2,24c0,-12.15026 9.84974,-22 22,-22c12.15026,0 22,9.84974 22,22c0,12.15026 -9.84974,22 -22,22c-12.15026,0 -22,-9.84974 -22,-22z" id="base 1 1 1" fill="none" stroke-width="1"></path><g fill="#000000" stroke-width="1" font-family="Roboto, sans-serif" font-weight="400" font-size="14" text-anchor="start"></g><rect x="2" y="2" width="44" height="22" fill="none" stroke-width="1"></rect><path d="M2,24v-22h44v22z" fill="none" stroke-width="1"></path><path d="M2,24v-22h44v22z" fill="none" stroke-width="1"></path><path d="M2,24v-22h44v22z" fill="none" stroke-width="1"></path><path d="M2,24v-22h44v22z" fill="none" stroke-width="1"></path><g fill="#000000" stroke-width="1" font-family="Roboto, sans-serif" font-weight="400" font-size="14" text-anchor="start"></g><rect x="2" y="2" width="44" height="22" fill="none" stroke-width="1"></rect><path d="M2,24v-22h44v22z" fill="none" stroke-width="1"></path><path d="M2,24v-22h44v22z" fill="none" stroke-width="1"></path><path d="M2,24v-22h44v22z" fill="none" stroke-width="1"></path><path d="M2,24v-22h44v22z" fill="none" stroke-width="1"></path></g></svg>