<svg version="1.1" xmlns="http://www.w3.org/2000/svg" xmlns:xlink="http://www.w3.org/1999/xlink" width="48" height="48"><defs><linearGradient x1="14.22989" y1="14.22989" x2="54.98331" y2="54.98331" gradientUnits="userSpaceOnUse" id="color-1"><stop offset="0" stop-color="#000000" stop-opacity="0.3"></stop><stop offset="1" stop-color="#000000" stop-opacity="0"></stop></linearGradient><filter id="dropshadow-base"><feColorMatrix type="matrix" values="0 0 0 0 0  0 0 0 0 0  0 0 0 0 0  0 0 0 .8 0"></feColorMatrix> <feOffset dx="0" dy="1"></feOffset> <feGaussianBlur stdDeviation="1"></feGaussianBlur> <feComposite in="SourceGraphic"></feComposite></filter><filter id="dropshadow-banner" x="-10%" y="-10%" width="120%" height="130%"><feColorMatrix type="matrix" values="0 0 0 0 0  0 0 0 0 0  0 0 0 0 0  0 0 0 .4 0"></feColorMatrix> <feOffset dx="0" dy="1"></feOffset> <feGaussianBlur stdDeviation="0.5"></feGaussianBlur> <feComposite in="SourceGraphic"></feComposite></filter></defs><g fill="none" fill-rule="nonzero" stroke="none" stroke-width="none" stroke-linecap="butt" stroke-linejoin="miter" stroke-miterlimit="10" stroke-dasharray="" stroke-dashoffset="0" font-family="none" font-weight="none" font-size="none" text-anchor="none" style="mix-blend-mode: normal"><path d="M2,24c0,-12.15026 9.84974,-22 22,-22c12.15026,0 22,9.84974 22,22c0,12.15026 -9.84974,22 -22,22c-12.15026,0 -22,-9.84974 -22,-22z" id="base 1 5" fill="#008080" stroke-width="1"></path><path d="M30.90926,17.0931l13.94192,13.94192c-2.18972,6.49252 -7.32678,11.62878 -13.81981,13.81739l-13.94071,-13.94071c-1.76797,-1.76797 -2.86077,-4.21148 -2.86077,-6.9117c0,-5.39799 4.36724,-9.77011 9.76522,-9.77011c2.70021,0 5.14495,1.09402 6.91414,2.86321z" fill="url(#color-1)" stroke-width="1"></path><path d="M23.99511,14.22989c-5.39799,0 -9.76522,4.37212 -9.76522,9.77011c0,5.39799 4.36724,9.77011 9.76522,9.77011c5.39799,0 9.77499,-4.37212 9.77499,-9.77011c0,-5.39799 -4.37701,-9.77011 -9.77499,-9.77011zM24,31.81609c-4.31839,0 -7.81609,-3.4977 -7.81609,-7.81609c0,-4.31839 3.4977,-7.81609 7.81609,-7.81609c4.31839,0 7.81609,3.4977 7.81609,7.81609c0,4.31839 -3.4977,7.81609 -7.81609,7.81609zM24.48851,19.11495h-1.46552v5.86207l5.12442,3.07758l0.73764,-1.20172l-4.39655,-2.60862z" fill="none" stroke-width="0"></path><path d="M33.77011,24c0,5.39799 -4.37701,9.77011 -9.77499,9.77011c-5.39799,0 -9.76522,-4.37212 -9.76522,-9.77011c0,-5.39799 4.36724,-9.77011 9.76522,-9.77011c5.39799,0 9.77499,4.37212 9.77499,9.77011zM31.81609,24c0,-4.31839 -3.4977,-7.81609 -7.81609,-7.81609c-4.31839,0 -7.81609,3.4977 -7.81609,7.81609c0,4.31839 3.4977,7.81609 7.81609,7.81609c4.31839,0 7.81609,-3.4977 7.81609,-7.81609zM24.48851,24.24425l4.39655,2.60862l-0.73764,1.20172l-5.12442,-3.07758v-5.86207h1.46552z" fill="#ffffff" stroke-width="0"></path><path d="M2,24c0,-12.15026 9.84974,-22 22,-22c12.15026,0 22,9.84974 22,22c0,12.15026 -9.84974,22 -22,22c-12.15026,0 -22,-9.84974 -22,-22z" id="base 1 1 1" fill="none" stroke-width="1"></path><g fill="#000000" stroke-width="1" font-family="Roboto, sans-serif" font-weight="400" font-size="14" text-anchor="start"></g><rect x="2" y="2" width="44" height="22" fill="none" stroke-width="1"></rect><path d="M2,24v-22h44v22z" fill="none" stroke-width="1"></path><path d="M2,24v-22h44v22z" fill="none" stroke-width="1"></path><path d="M2,24v-22h44v22z" fill="none" stroke-width="1"></path><path d="M2,24v-22h44v22z" fill="none" stroke-width="1"></path></g></svg>