<svg xmlns="http://www.w3.org/2000/svg" xmlns:svgjs="http://svgjs.com/svgjs" xmlns:xlink="http://www.w3.org/1999/xlink" width="288" height="288"><svg xmlns="http://www.w3.org/2000/svg" width="288" height="288" baseProfile="tiny" version="1.2" viewBox="0 0 256 256"><path fill="none" d="M121.1 101.1c-2.9 0-5.2-2.3-5.2-5.2 0-2.8 2.3-5.1 5.2-5.1 2.8 0 5.1 2.3 5.1 5.1C126.2 98.8 123.9 101.1 121.1 101.1zM79.5 95.9c-24.9 0-23.1 21.1-23.1 21.1-6.2-7-10.1-16.3-10.1-26.4 0-22 17.8-39.7 39.7-39.7 11.5 0 21.7 4.8 29 12.5C115 63.4 115.4 95.1 79.5 95.9z"/><path fill="none" d="M130.5,78.1c0.9,3.8,1.9,13.8,1.9,13.8l9.5,24.1c0.2,0.4,0.3,0.8,0.3,1.4
		c0,2.1-1.6,3.6-3.7,3.6H132v13.1c0,10-7.7,17.9-17.7,17.9H107v8H58v-32.7c-11-8.4-17.5-21.4-17.5-36.1c0-25.4,20.6-46,45.9-46
		C107.3,45.2,126.5,60.9,130.5,78.1z"/><circle cx="212.6" cy="53.4" r="12.9" fill="#099" class="color000 svgShape"/><g fill="#099" class="color000 svgShape"><circle cx="131.7" cy="219.3" r="15.7" class="color000 svgShape"/><circle cx="206.4" cy="219.3" r="15.7" class="color000 svgShape"/><circle cx="58.1" cy="219.3" r="15.7" class="color000 svgShape"/><path d="M149.9 237h-18-18c-8.6 0-14 6-16 14h69C164.5 243 158.3 237 149.9 237zM224.6 237h-18-18c-8.6 0-13.8 6-15.7 14h69C239.4 243 233 237 224.6 237zM76.2 237h-18-18c-8.5 0-14.2 6-16.3 14h68.1C90.1 243 84.7 237 76.2 237zM107 160v-8h7.3c10 0 17.7-7.9 17.7-17.9V121h6.5c2.1 0 3.7-1.5 3.7-3.6 0-.5-.1-.9-.3-1.3l-9.6-24.2c0 0-1-10-1.9-13.8-4-17.2-23.2-32.9-44.1-32.9-25.3 0-45.9 20.5-45.9 46 0 14.7 6.5 27.7 17.5 36.1V160H107zM121.1 90.8c2.8 0 5.1 2.3 5.1 5.1 0 2.8-2.3 5.2-5.1 5.2-2.9 0-5.2-2.3-5.2-5.2C115.9 93.1 118.2 90.8 121.1 90.8zM56.4 117c-6.2-7-10.1-16.3-10.1-26.4 0-22 17.8-39.7 39.7-39.7 11.5 0 21.7 4.8 29 12.5 0 0 .5 31.7-35.5 32.5C54.6 95.9 56.4 117 56.4 117z" class="color000 svgShape"/><polygon points="11 4 11 23 19 23 19 182 177 182 177 103 170 103 170 174 26 174 26 23 170 23 170 83 173.8 82.9 177 79.7 177 23 186 23 186 4" class="color000 svgShape"/><path d="M228.6,69h-29c-4.1,0-8.4,1.5-11.6,4.6c0,0.1-9.7,9.5-13.7,13.4h-23c-1.1,0-2.1,0.5-2.9,1.1l-14.4-19.7
		c-0.5-0.6-1.3-0.8-1.9-0.3c-0.6,0.5-0.7,1.3-0.3,1.9l14.7,20.4c-0.4,0.8-0.7,1.8-0.7,2.8c0,3.1,2.5,5.8,5.6,5.8H169h1h7v0
		c2-0.1,2.8-0.8,3.7-1.6l11.5-11.5c0.3-0.3,0.8-0.5,1.2-0.5c0.9,0,1.6,0.7,1.6,1.6V186c0,4.4,3.6,8,8,8c4.4,0,8-3.6,8-8v-55.9
		c0-0.9,0.6-1.6,1.5-1.6c0.9,0,1.5,0.7,1.5,1.6v56c0,4.4,3.6,8,8,8s8-3.6,8-8V88.5c0-0.9,0.6-1.6,1.5-1.6s1.5,0.7,1.5,1.6v36
		c0,3.1,2.8,5.6,6,5.6c3.1,0,5-2.6,6-5.7V85.3C245,76.4,237.4,69,228.6,69z" class="color000 svgShape"/></g></svg></svg>